<svg xmlns="http://www.w3.org/2000/svg" data-name="Layer 1" fill="#F16922" viewBox="0 0 512 512">
  <path d="M203.65 241.22L377.3 140.97l-81.67-47.15-173.64 100.25 81.66 47.15zM197 253.34L23 153.1v200.53l174 100.26V253.34zM351 356h19v19h-19zM211 253.34v200.54l95-54.94V254.18A30.04 30.04 0 01335.9 224h24.9a24.53 24.53 0 0123.42-18H384v-52.91z"/>
  <rect width="61" height="21" x="374" y="220" rx="10.16"/>
  <path d="M281.63 85.73l-77.98-45.01L30.01 140.97 108 185.99 281.63 85.73zM472.92 238h-25.19a23.94 23.94 0 01-23.14 17h-40.37a23.94 23.94 0 01-23.15-17H335.9A16.02 16.02 0 00320 254.18v202.1A15.63 15.63 0 00335.9 472h137.02A15.8 15.8 0 00489 456.28v-202.1A16.19 16.19 0 00472.92 238zM337 285.03a6.99 6.99 0 016.95-7.03h32.97a7.1 7.1 0 017.08 7.03v4.71a7.02 7.02 0 01-7.04 6.99 6.74 6.74 0 01-6.65-4.73H351v19h.28a7 7 0 110 14h-7.33a6.95 6.95 0 01-6.95-7zm0 63.97a7 7 0 017-7h33a7 7 0 017 7v33a7 7 0 01-7 7h-33a7 7 0 01-7-7zm14.28 104h-7.33a6.75 6.75 0 01-6.95-6.76v-32.97a7.2 7.2 0 016.95-7.27h32.97a7.3 7.3 0 017.08 7.27V420a7.04 7.04 0 01-14.07-.01H351v19h.28a7 7 0 110 14zm51.66-27.26L377.5 451.2a7 7 0 01-9.9 0l-11.19-11.18a7 7 0 119.9-9.9l6.24 6.23 20.5-20.5a7 7 0 019.9 9.9zm0-129.25l-25.45 25.45a7 7 0 01-9.9 0l-11.19-11.18a7 7 0 119.9-9.9l6.24 6.23 20.5-20.5a7 7 0 019.9 9.9zM464.86 437h-43.97a7 7 0 010-14h43.97a7 7 0 010 14zm0-64h-43.97a7 7 0 010-14h43.97a7 7 0 010 14zm0-64h-43.97a7 7 0 010-14h43.97a7 7 0 010 14z"/>
</svg>
