<svg xmlns="http://www.w3.org/2000/svg" fill="#F16922" viewBox="0 -65 512 512">
  <path d="M352.08 133.98V270.5h93.18a5.22 5.22 0 005.22-5.21V18.82a5.22 5.22 0 00-5.22-5.21h-43.32v66.2c0 8.64-7 15.64-15.65 15.64h-58.8c-8.63 0-15.64-7-15.64-15.64v-66.2h-43.33a5.22 5.22 0 00-5.21 5.21v99.52h73.13c8.64 0 15.64 7 15.64 15.64zm0 0M472.31 301.78H39.7A39.73 39.73 0 000 341.46a39.73 39.73 0 0039.69 39.68H472.3A39.73 39.73 0 00512 341.46c0-21.89-17.8-39.68-39.69-39.68zM83.22 357.1a15.64 15.64 0 110-31.28 15.64 15.64 0 010 31.28zm115.19 0a15.64 15.64 0 110-31.28 15.64 15.64 0 010 31.28zm115.18 0a15.65 15.65 0 11.01-31.3 15.65 15.65 0 010 31.3zm115.19 0a15.64 15.64 0 110-31.3 15.64 15.64 0 010 31.3zm0 0"/>
  <path d="M202.73 210.05v-60.43h-22.99a5.22 5.22 0 00-5.21 5.22v110.44a5.22 5.22 0 005.21 5.21h135.84a5.21 5.21 0 005.22-5.21V154.84a5.21 5.21 0 00-5.22-5.22h-22.97v60.43c0 8.65-7 15.65-15.64 15.65h-58.6c-8.64 0-15.64-7-15.64-15.65zm0 0"/>
  <path d="M261.33 194.41v-44.78H234v44.78zm0 0M343.13 13.6h27.52v50.57h-27.52zm0 0M68.83 152.92a15.64 15.64 0 100 31.28h42.65a15.64 15.64 0 000-31.28zm0 0M21.38 242.99h90.1a15.64 15.64 0 000-31.29h-90.1a15.64 15.64 0 000 31.29zm0 0M54.54 89.68h150.88a15.64 15.64 0 000-31.28H54.54a15.64 15.64 0 100 31.28zm0 0M114.36 31.28h91.06a15.64 15.64 0 100-31.28h-91.06a15.64 15.64 0 100 31.28zm0 0"/>
</svg>
