<?xml version="1.0" encoding="UTF-8"?>
<svg width="53px" height="58px" viewBox="0 0 53 58" version="1.1" xmlns="http://www.w3.org/2000/svg" xmlns:xlink="http://www.w3.org/1999/xlink">
    <!-- Generator: Sketch 59.1 (86144) - https://sketch.com -->
    <title>Shape</title>
    <desc>Created with Sketch.</desc>
    <defs>
        <linearGradient x1="107.800953%" y1="5.0308922%" x2="7.34255553%" y2="50%" id="linearGradient-1">
            <stop stop-color="#F9A247" offset="0%"></stop>
            <stop stop-color="#F16922" offset="100%"></stop>
        </linearGradient>
        <path d="M41.6560302,31.7625057 L41.6560302,13.8296151 C43.2126792,13.320634 44.3390491,11.8575396 44.3390491,10.1306264 C44.3390491,7.98058868 42.5951094,6.23737358 40.4457962,6.23737358 C39.0895698,6.23737358 37.8970868,6.93138113 37.2002717,7.98303396 L25.9621132,4.25316226 C25.9735245,4.13343396 25.9922717,4.01569811 25.9922717,3.8933434 C25.9922717,1.74330566 24.2483321,0 22.098566,0 C19.9479849,0 18.2053132,1.74330566 18.2053132,3.8933434 C18.2053132,4.01977358 18.2125585,4.14412075 18.2241509,4.26674717 L7.15480755,7.97388679 C6.45690566,6.9269434 5.2658717,6.23683019 3.91335849,6.23683019 C1.76332075,6.23683019 0.0201056604,7.98004528 0.0201056604,10.130083 C0.0201056604,11.9991849 1.33756981,13.5584604 3.09391698,13.9352151 L3.09391698,31.6564528 C1.33756981,32.033117 0.0201056604,33.5922113 0.0201056604,35.4615849 C0.0201056604,37.6114415 1.76332075,39.3550189 3.91335849,39.3550189 C5.5349434,39.3550189 6.92467925,38.3625962 7.50973585,36.9523019 L18.7137509,42.1649208 C18.3900679,42.7322264 18.2052226,43.3888302 18.2052226,44.0890868 C18.2052226,46.2393962 19.9478943,47.9823396 22.0984755,47.9823396 C24.2482415,47.9823396 25.9921811,46.2393962 25.9921811,44.0890868 C25.9921811,43.3922717 25.8019019,42.7436377 25.4803925,42.1776906 L36.8445283,36.9384453 C37.4258717,38.3562566 38.8187774,39.3554717 40.4464302,39.3554717 C42.5962868,39.3554717 44.3395019,37.6124377 44.3395019,35.4622189 C44.3390491,33.7339472 43.2126792,32.2720302 41.6560302,31.7625057 Z M5.12440755,31.7625057 L5.12440755,13.8296151 C5.82013585,13.6021132 6.42076981,13.1769057 6.88274717,12.6310642 L18.2931623,17.9392302 C18.2365585,18.2034113 18.2054038,18.4769208 18.2054038,18.7576755 C18.2054038,20.6266868 19.5228679,22.1860528 21.2792151,22.562717 L21.2792151,25.1318943 L21.2792151,27.2746868 L6.20966038,32.3206642 C5.88235472,32.0817509 5.51764528,31.8914717 5.12440755,31.7625057 Z M7.51996981,34.0229434 L21.2787623,29.4154868 L21.2787623,40.2840453 C20.9233811,40.3598491 20.587834,40.4866415 20.2754717,40.6521962 L7.75571321,34.8277132 C7.7093434,34.5457811 7.62312453,34.2801509 7.51996981,34.0229434 Z M23.309434,40.3897358 L23.309434,29.5420075 L36.8285887,34.0294642 C36.7295094,34.2786113 36.6542491,34.5408 36.6085132,34.8125887 L23.9269132,40.6582642 C23.7295698,40.5538415 23.5243472,40.4600151 23.309434,40.3897358 Z M23.309434,27.4031094 L23.309434,24.8860075 L23.309434,22.4566642 C24.866083,21.947683 25.9922717,20.4844981 25.9922717,18.7576755 C25.9922717,18.4810868 25.9617509,18.2115623 25.9071396,17.951366 L37.4599245,12.6249057 C38.0061283,13.2781585 38.7623547,13.7503698 39.6266264,13.9357585 L39.6266264,31.6571774 C39.0806943,31.7735547 38.5770566,32.0064906 38.1418868,32.3257358 L23.309434,27.4031094 Z M36.5639547,9.91091321 C36.5596075,9.9845434 36.5532679,10.056634 36.5532679,10.130717 C36.5532679,10.3530566 36.5731925,10.5700528 36.6086038,10.7824302 L24.978566,16.1443019 C24.5294491,15.6494491 23.9581585,15.2704302 23.309434,15.058234 L23.309434,7.59287547 C24.1027925,7.33295094 24.7815849,6.82342642 25.2598642,6.15912453 L36.5639547,9.91091321 Z M18.9417057,6.1677283 C19.4963321,6.93473208 20.3214792,7.49343396 21.2786717,7.69883774 L21.2786717,14.952634 C20.4729057,15.1250717 19.7631396,15.5482868 19.2268981,16.1345208 L7.74883019,10.7939321 C7.78523774,10.5775698 7.80733585,10.3567698 7.80733585,10.130083 C7.80733585,10.0525585 7.80018113,9.97621132 7.79538113,9.89968302 L18.9417057,6.1677283 Z" id="path-2"></path>
        <filter x="-16.9%" y="-15.6%" width="133.8%" height="131.3%" filterUnits="objectBoundingBox" id="filter-3">
            <feOffset dx="0" dy="0" in="SourceAlpha" result="shadowOffsetOuter1"></feOffset>
            <feGaussianBlur stdDeviation="1" in="shadowOffsetOuter1" result="shadowBlurOuter1"></feGaussianBlur>
            <feColorMatrix values="0 0 0 0 1   0 0 0 0 0.403921569   0 0 0 0 0  0 0 0 0.501475087 0" type="matrix" in="shadowBlurOuter1" result="shadowMatrixOuter1"></feColorMatrix>
            <feOffset dx="0" dy="0" in="SourceAlpha" result="shadowOffsetOuter2"></feOffset>
            <feGaussianBlur stdDeviation="2.5" in="shadowOffsetOuter2" result="shadowBlurOuter2"></feGaussianBlur>
            <feColorMatrix values="0 0 0 0 1   0 0 0 0 0.485195436   0 0 0 0 0.301276677  0 0 0 0.295536495 0" type="matrix" in="shadowBlurOuter2" result="shadowMatrixOuter2"></feColorMatrix>
            <feMerge>
                <feMergeNode in="shadowMatrixOuter1"></feMergeNode>
                <feMergeNode in="shadowMatrixOuter2"></feMergeNode>
            </feMerge>
        </filter>
    </defs>
    <g id="web" stroke="none" stroke-width="1" fill="none" fill-rule="evenodd">
        <g id="5-О-компании" transform="translate(-700.000000, -3977.000000)">
            <g id="Partners" transform="translate(0.000000, 3705.000000)">
                <g id="Group-9" transform="translate(591.000000, 261.000000)">
                    <g id="Prod-3" transform="translate(95.000000, 0.000000)">
                        <g id="001-cube-molecule" transform="translate(18.000000, 16.000000)">
                            <g id="Shape">
                                <use fill="black" fill-opacity="1" filter="url(#filter-3)" xlink:href="#path-2"></use>
                                <use fill="url(#linearGradient-1)" fill-rule="evenodd" xlink:href="#path-2"></use>
                            </g>
                        </g>
                    </g>
                </g>
            </g>
        </g>
    </g>
</svg>