<svg xmlns="http://www.w3.org/2000/svg" xmlns:xlink="http://www.w3.org/1999/xlink" viewBox="0 0 58 58"><defs><linearGradient id="a" x1="100%" x2="19.44%" y1="0%" y2="82.168%"><stop offset="0%" stop-color="#FFE0CA"/><stop offset="100%" stop-color="#FFBD9A"/></linearGradient><linearGradient id="d" x1="117.75%" x2="0%" y1="5.031%" y2="50%"><stop offset="0%" stop-color="#F9A247"/><stop offset="100%" stop-color="#F16922"/></linearGradient><filter id="b" width="131.2%" height="131.2%" x="-15.6%" y="-15.6%" filterUnits="objectBoundingBox"><feOffset in="SourceAlpha" result="shadowOffsetOuter1"/><feGaussianBlur in="shadowOffsetOuter1" result="shadowBlurOuter1" stdDeviation="1"/><feColorMatrix in="shadowBlurOuter1" result="shadowMatrixOuter1" values="0 0 0 0 1 0 0 0 0 0.403921569 0 0 0 0 0 0 0 0 0.501475087 0"/><feOffset in="SourceAlpha" result="shadowOffsetOuter2"/><feGaussianBlur in="shadowOffsetOuter2" result="shadowBlurOuter2" stdDeviation="2.5"/><feColorMatrix in="shadowBlurOuter2" result="shadowMatrixOuter2" values="0 0 0 0 1 0 0 0 0 0.485195436 0 0 0 0 0.301276677 0 0 0 0.295536495 0"/><feMerge><feMergeNode in="shadowMatrixOuter1"/><feMergeNode in="shadowMatrixOuter2"/></feMerge></filter><path id="c" d="M48 29.754V18.246l-4.428-.678a20.575 20.575 0 00-1.185-2.858l2.653-3.612-8.138-8.138-3.612 2.653a20.486 20.486 0 00-2.858-1.185L29.754 0H18.246l-.678 4.428c-.98.322-1.936.718-2.858 1.185L11.098 2.96 2.96 11.098l2.653 3.612a20.486 20.486 0 00-1.185 2.858L0 18.246v11.508l4.428.678c.322.98.719 1.936 1.185 2.858L2.96 36.902l8.138 8.137 3.612-2.652c.922.466 1.878.863 2.858 1.185L18.246 48h11.508l.678-4.428c.98-.322 1.936-.718 2.858-1.185l3.612 2.653 8.138-8.138-2.653-3.612c.466-.922.863-1.878 1.185-2.858L48 29.754zm-24 8.202c-7.695 0-13.956-6.26-13.956-13.956 0-7.695 6.26-13.956 13.956-13.956 7.695 0 13.956 6.26 13.956 13.956 0 7.695-6.26 13.956-13.956 13.956z"/></defs><g fill="none" fill-rule="evenodd"><path fill="url(#a)" fill-rule="nonzero" d="M24 12.857c-6.144 0-11.143 4.999-11.143 11.143 0 6.144 4.999 11.143 11.143 11.143 6.144 0 11.143-4.999 11.143-11.143 0-6.144-4.999-11.143-11.143-11.143zm0 19.442c-4.576 0-8.3-3.723-8.3-8.299s3.724-8.3 8.3-8.3c4.576 0 8.3 3.724 8.3 8.3 0 4.576-3.724 8.3-8.3 8.3z" transform="translate(5 5)"/><path fill="url(#a)" fill-rule="nonzero" d="M24 18.513A5.493 5.493 0 0018.513 24 5.493 5.493 0 0024 29.487 5.493 5.493 0 0029.487 24 5.493 5.493 0 0024 18.513z" transform="translate(5 5)"/><g transform="translate(5 5)"><use fill="#000" filter="url(#b)" xlink:href="#c"/><use fill="url(#d)" xlink:href="#c"/></g></g></svg>