<?xml version="1.0" encoding="UTF-8"?>
<svg width="89px" height="90px" viewBox="0 0 89 90" version="1.1" xmlns="http://www.w3.org/2000/svg" xmlns:xlink="http://www.w3.org/1999/xlink">
    <!-- Generator: Sketch 59.1 (86144) - https://sketch.com -->
    <title>Shape</title>
    <desc>Created with Sketch.</desc>
    <defs>
        <linearGradient x1="115.969801%" y1="5.0308922%" x2="1.31389774%" y2="50%" id="linearGradient-1">
            <stop stop-color="#F9A247" offset="0%"></stop>
            <stop stop-color="#F16922" offset="100%"></stop>
        </linearGradient>
        <path d="M58.2196865,45.6691703 L54.5790596,45.6691703 C53.8961369,42.0429694 52.4280971,38.6038428 50.2856799,35.6078603 L52.8129823,33.0759825 C53.0588764,32.8295197 53.19717,32.4951965 53.19717,32.1460262 C53.19717,31.7975546 53.0588764,31.4630568 52.8129823,31.2169432 L48.4022362,26.7993013 C47.888649,26.2864629 47.058713,26.2864629 46.5449514,26.7993013 L43.943532,29.4057642 C40.9778057,27.3746725 37.6111501,25.9944105 34.0912031,25.3692576 L34.0912031,21.6674236 C34.0912031,20.9414847 33.5028013,20.3523144 32.7781987,20.3523144 L26.5405121,20.3523144 C25.8157351,20.3523144 25.2275077,20.9416594 25.2275077,21.6674236 L25.2275077,25.3692576 C21.6794834,25.9996507 18.2875408,27.3951092 15.3052472,29.4515284 L12.7721898,26.9166812 C12.2593002,26.4024454 11.4284923,26.4024454 10.9156026,26.9166812 L6.50537969,31.3344978 C6.25913687,31.5809607 6.12032009,31.9161572 6.12032009,32.2644541 C6.12032009,32.6129258 6.25913687,32.9479476 6.50537969,33.1945852 L8.98577042,35.6772052 C6.86829139,38.6609607 5.41803974,42.0744105 4.74017439,45.6691703 L1.42915011,45.6691703 C0.703675497,45.6691703 0.115448124,46.2571179 0.115448124,46.9844541 L0.115448124,53.230917 C0.115448124,53.9579039 0.70384989,54.5467249 1.42915011,54.5467249 L4.62926049,54.5467249 C5.23143929,58.1692576 6.62745475,61.6361572 8.71406623,64.690655 L6.38853642,67.0190393 C5.87512362,67.5336245 5.87512362,68.3657642 6.38853642,68.8793013 L10.7991082,73.2979913 C11.044479,73.5442795 11.380011,73.6838428 11.7277506,73.6838428 C12.0754901,73.6838428 12.4098013,73.5442795 12.6556954,73.2979913 L14.9083289,71.0429694 C17.9825276,73.2469869 21.5099735,74.7374672 25.2275077,75.3958079 L25.2275077,78.5479476 C25.2275077,79.2744105 25.8157351,79.8634061 26.5405121,79.8634061 L32.7781987,79.8634061 C33.5029757,79.8634061 34.0912031,79.2744105 34.0912031,78.5479476 L34.0912031,75.3958079 C37.7782185,74.7432314 41.2831678,73.2689956 44.3406247,71.0897817 L46.6614459,73.4148472 C47.1539316,73.9075983 48.0260706,73.9075983 48.5183819,73.4148472 L52.9294768,68.9968559 C53.4423664,68.4824454 53.4423664,67.6510044 52.9294768,67.1367686 L50.5558146,64.7601747 C52.6696313,61.6868122 54.079947,58.1972052 54.6868344,54.5460262 L58.2196865,54.5460262 C58.943766,54.5460262 59.5325166,53.9572052 59.5325166,53.2296943 L59.5325166,46.9837555 C59.5325166,46.2571179 58.9451611,45.6691703 58.2196865,45.6691703 Z M29.8252031,63.9729258 C22.18034,63.9729258 15.9822406,57.7648908 15.9822406,50.1081223 C15.9822406,42.4510044 22.179468,36.2440175 29.8252031,36.2440175 C37.4702406,36.2440175 43.6678168,42.4510044 43.6678168,50.1081223 C43.6678168,57.7648908 37.4693687,63.9729258 29.8252031,63.9729258 Z M35.0775695,50.1081223 C35.0775695,53.0136245 32.7251832,55.369607 29.8252031,55.369607 C26.9246998,55.369607 24.5726623,53.0136245 24.5726623,50.1081223 C24.5726623,47.2022707 26.9245254,44.8471616 29.8252031,44.8471616 C32.7250088,44.8471616 35.0775695,47.2022707 35.0775695,50.1081223 Z M78.2956269,20.6323144 L76.5340839,19.8724891 C77.0073863,17.7935371 77.0218609,15.6426201 76.5740199,13.5739738 L78.4490927,12.8275983 C78.8336291,12.6735371 79.0216247,12.2373799 78.8702517,11.8517031 L77.5520155,8.53449782 C77.3987241,8.1479476 76.9632649,7.96 76.5769845,8.11388646 L74.6441876,8.88384279 C73.5163885,7.10358079 72.0124238,5.58777293 70.2432075,4.45030568 L71.0506468,2.57117904 C71.1306932,2.38812227 71.1329603,2.18253275 71.0581457,1.99580786 C70.9857726,1.81117904 70.8406777,1.66148472 70.6584371,1.58427948 L67.3842097,0.171179039 C67.0047307,0.00751091703 66.5626446,0.184104803 66.3988896,0.563318777 L65.5673841,2.49868996 C63.5637837,2.04838428 61.4850199,2.02777293 59.4849073,2.43895197 L58.7032781,0.473886463 C58.549638,0.088209607 58.1129581,-0.0995633188 57.7278985,0.0529257642 L54.4170486,1.37344978 C54.0321634,1.52681223 53.8441678,1.96454148 53.9962384,2.34934498 L54.7764724,4.31528384 C53.0264393,5.39965066 51.5209051,6.8590393 50.3695629,8.58148472 L48.4915254,7.77152838 C48.1099536,7.60716157 47.6692627,7.7828821 47.5048102,8.16384279 L46.0944945,11.4427948 C46.0161921,11.6267249 46.012181,11.8321397 46.08717,12.0181659 C46.1602406,12.2031441 46.3044636,12.3517904 46.4875762,12.4300437 L48.3274216,13.2248035 C47.8330177,15.2558952 47.7826181,17.3758952 48.1805828,19.4281223 L46.422702,20.129083 C46.0381656,20.2824454 45.85017,20.7193013 46.003287,21.1049782 L47.3199536,24.4216594 C47.4748146,24.8082096 47.9095762,24.9966812 48.2949845,24.8427948 L49.9956645,24.1655895 C51.078819,25.9626201 52.5510442,27.5081223 54.30317,28.6880349 L53.5597329,30.4165939 C53.3968499,30.7986026 53.5710684,31.241048 53.952117,31.4054148 L57.2256468,32.8176419 C57.4087594,32.8960699 57.6148918,32.8999127 57.798702,32.8253275 C57.9830353,32.7523144 58.1317925,32.6075109 58.2099205,32.4253275 L58.9298146,30.7517904 C61.0272384,31.2712664 63.2143002,31.3161572 65.3274194,30.8798253 L65.9913333,32.5524891 C66.1449735,32.9390393 66.5809558,33.1269869 66.966713,32.9734498 L70.2782605,31.6539738 C70.6634945,31.5009607 70.8507925,31.0627074 70.6987219,30.6780786 L70.033936,29.0043668 C71.8537263,27.8780786 73.4033819,26.3540611 74.5685011,24.549345 L76.2908057,25.2929258 C76.6563333,25.449607 77.1198698,25.2667249 77.2768234,24.9006114 L78.6871391,21.6218341 C78.8522892,21.2379039 78.6758035,20.7968559 78.2956269,20.6323144 Z M65.3593333,23.840524 C61.3010353,25.4572926 56.7012472,23.4735371 55.0875894,19.4075109 C53.473234,15.3420087 55.453989,10.7358952 59.5129845,9.11737991 C63.5712826,7.50165939 68.1708962,9.48524017 69.7873444,13.549869 C71.4010022,17.6158952 69.4190265,22.2228821 65.3593333,23.840524 Z M65.2259227,15.3673362 C65.8389139,16.9100437 65.0865828,18.6581659 63.5466932,19.2717904 C62.006106,19.8854148 60.2618278,19.1318777 59.6472671,17.5891703 C59.036543,16.0464629 59.787479,14.2988646 61.3271943,13.6850655 C62.8667351,13.071441 64.6132804,13.8251528 65.2259227,15.3673362 Z" id="path-2"></path>
        <filter x="-9.5%" y="-9.4%" width="119.0%" height="118.8%" filterUnits="objectBoundingBox" id="filter-3">
            <feOffset dx="0" dy="0" in="SourceAlpha" result="shadowOffsetOuter1"></feOffset>
            <feGaussianBlur stdDeviation="1" in="shadowOffsetOuter1" result="shadowBlurOuter1"></feGaussianBlur>
            <feColorMatrix values="0 0 0 0 1   0 0 0 0 0.403921569   0 0 0 0 0  0 0 0 0.501475087 0" type="matrix" in="shadowBlurOuter1" result="shadowMatrixOuter1"></feColorMatrix>
            <feOffset dx="0" dy="0" in="SourceAlpha" result="shadowOffsetOuter2"></feOffset>
            <feGaussianBlur stdDeviation="2.5" in="shadowOffsetOuter2" result="shadowBlurOuter2"></feGaussianBlur>
            <feColorMatrix values="0 0 0 0 1   0 0 0 0 0.485195436   0 0 0 0 0.301276677  0 0 0 0.295536495 0" type="matrix" in="shadowBlurOuter2" result="shadowMatrixOuter2"></feColorMatrix>
            <feMerge>
                <feMergeNode in="shadowMatrixOuter1"></feMergeNode>
                <feMergeNode in="shadowMatrixOuter2"></feMergeNode>
            </feMerge>
        </filter>
    </defs>
    <g id="web" stroke="none" stroke-width="1" fill="none" fill-rule="evenodd">
        <g id="5-О-компании" transform="translate(-536.000000, -1422.000000)">
            <g id="Group-5" transform="translate(272.000000, 1152.000000)">
                <g id="Group-4" transform="translate(269.000000, 275.000000)">
                    <g id="002-cog">
                        <g id="Shape">
                            <use fill="black" fill-opacity="1" filter="url(#filter-3)" xlink:href="#path-2"></use>
                            <use fill="url(#linearGradient-1)" fill-rule="evenodd" xlink:href="#path-2"></use>
                        </g>
                    </g>
                </g>
            </g>
        </g>
    </g>
</svg>