<?xml version="1.0" encoding="UTF-8"?>
<svg width="58px" height="57px" viewBox="0 0 58 57" version="1.1" xmlns="http://www.w3.org/2000/svg" xmlns:xlink="http://www.w3.org/1999/xlink">
    <!-- Generator: Sketch 59.1 (86144) - https://sketch.com -->
    <title>Path 5</title>
    <desc>Created with Sketch.</desc>
    <defs>
        <linearGradient x1="117.750136%" y1="5.48191323%" x2="0%" y2="50%" id="linearGradient-1">
            <stop stop-color="#F9A247" offset="0%"></stop>
            <stop stop-color="#F16922" offset="100%"></stop>
        </linearGradient>
        <path d="M25.7311848,6.57304265 L30.7229573,8.47461611 C30.7841517,9.13751659 30.9034692,9.79370616 31.079545,10.4356777 L31.079545,10.4356777 L26.6225972,14.8331374 C24.7325118,13.9152227 22.6622559,13.4280569 20.5611754,13.4069005 L20.5611754,13.4069005 L20.5019147,13.4067867 C12.9205308,13.4067867 6.77448341,19.5526066 6.77448341,27.1339905 C6.77448341,34.7153744 12.9203033,40.8613081 20.5016872,40.8614218 C28.0830711,40.8614218 34.2290047,34.7156019 34.2291185,27.134218 C34.2247962,25.171564 33.8203223,23.2305213 33.0406066,21.4293839 L33.0406066,21.4293839 L37.5568152,16.972436 L39.2207773,17.2695355 L40.8847393,21.0133081 L38.4483412,23.3309573 L38.4483412,23.8064076 C38.8056114,25.72709 38.8656682,27.6912227 38.6265782,29.6301043 L38.6265782,29.6301043 L38.6265782,30.0461801 L41.1818389,32.2449668 L39.3396398,37.0583886 L35.8929668,37.0583886 L35.5958673,37.4743507 C34.5224645,39.0832607 33.1748246,40.4912986 31.6143697,41.6340853 L31.6143697,41.6340853 L31.257782,41.9311848 L31.4955071,45.3778578 L26.7414597,47.3982938 L24.364436,44.9618957 L23.8889858,44.9618957 C21.9880948,45.3176872 20.0437536,45.3778578 18.1246635,45.1401327 L18.1246635,45.1401327 L17.6492133,45.1401327 L15.3910521,47.6953934 L10.5776303,45.8531943 L10.6964929,42.4065213 L10.2805308,42.1094218 C8.65854028,41.0523981 7.24777251,39.7021422 6.12079621,38.1279242 L6.12079621,38.1279242 L5.82369668,37.7713365 L2.3770237,38.0090616 L0.297099526,33.2550142 L2.79298578,30.8781043 L2.67412322,30.4621422 C2.36690047,28.5356588 2.32686256,26.5759621 2.55526066,24.6384455 L2.55526066,24.6384455 L2.55526066,24.1629953 L0,21.9048341 L1.84219905,17.2100474 L5.28887204,17.2100474 L5.52659716,16.7940853 C6.61706161,15.1989384 7.96219905,13.7936303 9.50809479,12.6343507 L9.50809479,12.6343507 L9.92405687,12.3372512 L9.68633175,8.8905782 L14.380891,6.81065403 L16.7579147,9.30654028 L17.2333649,9.30654028 C19.1540474,8.94927014 21.1181801,8.88921327 23.0570616,9.12830332 L23.0570616,9.12830332 L23.5325118,9.12830332 L25.7311848,6.57304265 Z M9.96329858,22.3979147 C12.4911469,16.4470521 19.3644739,13.6721517 25.3153365,16.2 L25.3153365,16.2 L22.2846256,19.1712227 C19.5855924,18.6498199 16.8034123,19.4952796 14.8507678,21.4300664 C11.5869953,24.6642654 11.5628815,29.9318673 14.7969668,33.1956398 C16.3353555,34.7523412 18.4321137,35.6295355 20.6206635,35.6320379 C22.842654,35.6222559 24.973763,34.7484739 26.5632227,33.1957536 C28.5032417,31.2252512 29.3285687,28.4146351 28.7620095,25.7080948 L28.7620095,25.7080948 L31.6738578,22.7962464 C32.755109,25.6257441 32.6975545,28.7641706 31.5132512,31.5520379 C28.9854028,37.5029005 22.1120758,40.2778009 16.1612133,37.7499526 C10.2103507,35.2221043 7.43545024,28.3487773 9.96329858,22.3979147 Z M34.7638294,2.29433175 C36.4793175,0.540511848 38.9353934,-0.278218009 41.3600758,0.0955450237 L41.3600758,0.0955450237 L38.2699905,3.24511848 C38.2439431,3.26809479 38.2192607,3.29277725 38.1962844,3.31882464 C37.8923602,3.66346919 37.925346,4.18919431 38.2699905,4.49311848 L38.2699905,4.49311848 L43.4994882,9.66312796 C43.6792038,9.76652133 43.8879242,9.8082654 44.0936872,9.78199052 C44.3184455,9.80530806 44.5452512,9.7641327 44.7473744,9.66312796 L44.7473744,9.66312796 L47.8374597,6.57304265 C48.0315071,7.82252133 47.9183318,9.10043602 47.5076019,10.2963412 C46.1110521,14.3625782 41.6825403,16.5267867 37.6163033,15.130237 C37.2919052,14.9974976 36.9198483,15.0673365 36.6655166,15.3084739 L36.6655166,15.3084739 L27.1574218,24.7570806 C26.9297062,24.993327 26.8398483,25.330237 26.9196967,25.6484929 C27.538237,27.8947109 26.9028626,30.2999431 25.2557346,31.9476398 C22.7285687,34.3197725 18.7892701,34.3071469 16.2774597,31.9187488 C13.6612322,29.4310521 13.5570427,25.2934976 16.0447393,22.6772701 C17.2673744,21.4837536 18.912,20.8216493 20.6205498,20.8350711 L20.6205498,20.8350711 L22.3438863,21.0133081 C22.6430332,21.1305782 22.9836967,21.0332133 23.1758104,20.7755829 L23.1758104,20.7755829 L32.6839052,11.3269763 C32.9218578,11.0723033 33.0117156,10.712872 32.9216303,10.3761896 C31.9603791,7.55055924 32.6729858,4.42430332 34.7638294,2.29433175 Z M20.6801517,23.865782 C19.7459716,23.8499716 18.8454597,24.2139526 18.1847204,24.8745782 C16.8385592,26.2205118 16.8383318,28.4028057 18.1842654,29.7489668 C18.8225972,30.4069763 19.704,30.772436 20.6206635,30.7592417 C21.5551848,30.7748246 22.4560379,30.4101611 23.1165498,29.7489668 C24.4615735,28.4031469 24.4615735,26.2218768 23.1165498,24.8760569 C22.4704834,24.2295355 21.5940853,23.8661232 20.6801517,23.865782 Z M19.5155261,26.0999431 C20.1719431,25.4568341 21.2254408,25.4676398 21.8685498,26.1239431 C22.5024455,26.7894597 22.5024455,27.8354502 21.8685498,28.5009668 C21.2121327,29.1573839 20.1479431,29.1573839 19.4915261,28.5009668 C18.835109,27.8445498 18.835109,26.7803602 19.4915261,26.1239431 L19.4915261,26.1239431 Z" id="path-2"></path>
        <filter x="-15.6%" y="-15.7%" width="131.3%" height="131.5%" filterUnits="objectBoundingBox" id="filter-3">
            <feOffset dx="0" dy="0" in="SourceAlpha" result="shadowOffsetOuter1"></feOffset>
            <feGaussianBlur stdDeviation="1" in="shadowOffsetOuter1" result="shadowBlurOuter1"></feGaussianBlur>
            <feColorMatrix values="0 0 0 0 1   0 0 0 0 0.403921569   0 0 0 0 0  0 0 0 0.501475087 0" type="matrix" in="shadowBlurOuter1" result="shadowMatrixOuter1"></feColorMatrix>
            <feOffset dx="0" dy="0" in="SourceAlpha" result="shadowOffsetOuter2"></feOffset>
            <feGaussianBlur stdDeviation="2.5" in="shadowOffsetOuter2" result="shadowBlurOuter2"></feGaussianBlur>
            <feColorMatrix values="0 0 0 0 1   0 0 0 0 0.485195436   0 0 0 0 0.301276677  0 0 0 0.295536495 0" type="matrix" in="shadowBlurOuter2" result="shadowMatrixOuter2"></feColorMatrix>
            <feMerge>
                <feMergeNode in="shadowMatrixOuter1"></feMergeNode>
                <feMergeNode in="shadowMatrixOuter2"></feMergeNode>
            </feMerge>
        </filter>
    </defs>
    <g id="web" stroke="none" stroke-width="1" fill="none" fill-rule="evenodd">
        <g id="7-Партнерам" transform="translate(-168.000000, -1923.000000)">
            <g id="Partners" transform="translate(0.000000, 1598.000000)">
                <g id="Group-9" transform="translate(155.000000, 315.000000)">
                    <g id="Prod-3">
                        <g id="002-spanner" transform="translate(18.000000, 15.000000)">
                            <g id="Path-5">
                                <use fill="black" fill-opacity="1" filter="url(#filter-3)" xlink:href="#path-2"></use>
                                <use fill="url(#linearGradient-1)" fill-rule="evenodd" xlink:href="#path-2"></use>
                            </g>
                        </g>
                    </g>
                </g>
            </g>
        </g>
    </g>
</svg>