<svg xmlns="http://www.w3.org/2000/svg" viewBox="0 0 2693 1460">
  <g fill="none" fill-rule="evenodd">
    <path fill="#F16922" d="M1340.5 0L1230 110.5 1340.5 221 1451 110.5z"/>
    <path fill="#132B84" d="M1251 336.414L1135.33 221 1119 237.293 1251 369zM823.929 531L799 555.932 1250 1007v-49.88zM1250 697v-42.135L975.072 380 954 401.067z"/>
    <path fill="#F16922" d="M1497.368 180L1427 250.464V442l166-166.228zM1427 842.293V1003l447-446.642L1793.578 476z"/>
    <path fill="#F3671F" d="M1652.725 335L1427 560.56V723l307-306.776z"/>
    <path fill="#132B84" fill-rule="nonzero" d="M116.34 1187.892l14.516-3.82c.255.51.446 1.019.573 1.528a6.28 6.28 0 01.191 1.528 502.404 502.404 0 003.247 10.887 290.893 290.893 0 013.247 11.269c6.876 22.156 14.77 46.095 23.684 71.816 8.913 25.721 21.137 59.72 36.672 101.994a416.315 416.315 0 003.247 9.359 481.03 481.03 0 003.629 9.741c3.82 10.187 8.34 19.418 13.561 27.695 5.22 8.277 12.033 12.415 20.437 12.415h9.55V1453c-8.15 0-13.497-.127-16.044-.382-2.547-.255-4.457-.637-5.73-1.146-1.528-.255-3.502-.51-5.921-.764-2.42-.255-7.576-.382-15.471-.382a120.9 120.9 0 00-7.067.191c-2.165.127-4.266.191-6.303.191a76.184 76.184 0 01-5.348.573c-1.783.127-3.693.318-5.73.573-2.801.255-5.985.446-9.55.573-3.565.127-7.767.318-12.606.573v-10.696h9.168c.51 0 1.146-.064 1.91-.191a15.082 15.082 0 002.292-.573c1.783-.51 3.502-1.846 5.157-4.011 1.655-2.165 2.483-5.666 2.483-10.505 0-1.783-.191-3.756-.573-5.921-.382-2.165-.828-4.52-1.337-7.067a254.155 254.155 0 00-1.528-6.494l-1.528-6.112a21.777 21.777 0 01-1.146-3.82c-.255-1.273-.637-2.674-1.146-4.202a727.112 727.112 0 00-4.202-13.752c-1.528-4.839-3.565-10.187-6.112-16.044-8.15 1.019-15.853 1.655-23.111 1.91-7.258.255-14.198.382-20.819.382-8.659 0-16.553-.255-23.684-.764-7.13-.51-13.243-1.019-18.336-1.528a416.839 416.839 0 00-3.247 8.404 674.315 674.315 0 00-3.629 9.932 31.124 31.124 0 00-1.91 4.775 51.802 51.802 0 01-1.91 5.157 212.74 212.74 0 00-4.584 15.662c-1.273 5.093-1.91 9.423-1.91 12.988v6.494c0 3.82.764 7.322 2.292 10.505 1.528 3.183 5.475 4.775 11.842 4.775h11.078V1453c-1.528 0-3.947-.064-7.258-.191-3.31-.127-7.13-.318-11.46-.573-3.82-.51-7.13-.955-9.932-1.337a188.51 188.51 0 00-8.404-.955h-4.202c-1.528 0-2.992.064-4.393.191-1.4.127-2.738.191-4.011.191-2.037.255-4.138.573-6.303.955s-4.902.7-8.213.955c-.764 0-1.528.064-2.292.191-.764.127-1.655.191-2.674.191-2.292 0-4.648.064-7.067.191-2.42.127-5.03.191-7.831.191v-10.696h3.82c7.64 0 14.07-2.738 19.291-8.213 5.22-5.475 10.25-13.434 15.089-23.875 2.547-5.857 5.22-12.415 8.022-19.673 2.801-7.258 5.73-15.216 8.786-23.875a8831.095 8831.095 0 0119.482-53.098 2103.655 2103.655 0 0016.426-45.84 2308.825 2308.825 0 007.64-22.538 622.702 622.702 0 007.258-23.302 309.234 309.234 0 004.966-16.426 1042.59 1042.59 0 014.966-17.572zm2.674 46.986h-2.674c-2.292 9.932-4.648 19.036-7.067 27.313a917.718 917.718 0 01-7.449 24.257 239.965 239.965 0 01-2.483 7.067 239.965 239.965 0 00-2.483 7.067 45.45 45.45 0 00-1.337 3.82 45.45 45.45 0 01-1.337 3.82c0 .255-.064.51-.191.764-.127.255-.191.51-.191.764a1181.437 1181.437 0 00-4.966 15.28c-1.783 5.603-4.457 13.752-8.022 24.448 8.15.51 15.598.891 22.347 1.146 6.749.255 12.924.382 18.527.382 7.13 0 13.561-.191 19.291-.573 5.73-.382 11.014-.7 15.853-.955-1.273-4.584-2.483-8.531-3.629-11.842a878.693 878.693 0 01-3.247-9.55c0-.255-.064-.573-.191-.955a2.397 2.397 0 00-.573-.955 169.894 169.894 0 01-2.101-5.921l-2.101-6.303c-9.168-24.957-15.471-43.166-18.909-54.626-3.438-11.46-5.794-19.61-7.067-24.448zm139.924-30.56v-10.696c3.31 0 6.112.064 8.404.191s4.457.191 6.494.191c.764.255 1.592.446 2.483.573.891.127 1.846.191 2.865.191 1.019 0 2.037.064 3.056.191 1.019.127 2.037.191 3.056.191 2.292.255 4.711.446 7.258.573 2.547.127 5.22.191 8.022.191h3.438c2.037 0 4.52-.127 7.449-.382 2.929-.255 7.831-.51 14.707-.764 1.019 0 1.91-.064 2.674-.191a13.92 13.92 0 012.292-.191c1.783 0 3.629-.064 5.539-.191 1.91-.127 4.648-.318 8.213-.573v10.696h-3.82c-3.565.255-6.876 1.783-9.932 4.584-3.056 2.801-4.584 8.786-4.584 17.954 0 16.553 3.693 33.616 11.078 51.188 7.385 17.572 15.407 35.271 24.066 53.098a824.895 824.895 0 0120.055 43.166c6.24 14.516 10.632 29.16 13.179 43.93h2.292a4033.122 4033.122 0 004.202-16.235c1.273-4.966 2.674-9.614 4.202-13.943a139.614 139.614 0 013.438-11.651c1.273-3.693 2.547-7.449 3.82-11.269a556.296 556.296 0 005.921-15.471 2265.19 2265.19 0 016.303-16.999c17.063-46.35 26.995-76.464 29.796-90.343 2.801-13.88 4.202-23.111 4.202-27.695v-1.146c-.51-2.292-2.547-4.393-6.112-6.303-3.565-1.91-7.64-2.865-12.224-2.865h-1.528v-10.696c1.273 0 2.42.064 3.438.191 1.019.127 2.037.191 3.056.191h3.056c1.273 0 2.674.064 4.202.191s3.183.318 4.966.573c1.019 0 2.101.064 3.247.191s2.356.191 3.629.191c2.292.255 4.711.446 7.258.573 2.547.127 5.093.191 7.64.191h5.348a37.77 37.77 0 005.348-.382c1.783 0 3.565-.064 5.348-.191a76.184 76.184 0 005.348-.573c2.037-.255 3.884-.446 5.539-.573a62.322 62.322 0 014.775-.191 52.413 52.413 0 016.494-.382h7.64v10.696c-14.007 0-24.639 4.011-31.897 12.033-7.258 8.022-13.816 19.29-19.673 33.807-3.565 8.404-7.194 17.7-10.887 27.886-3.693 10.187-7.958 21.265-12.797 33.234l-8.022 20.055a3694.866 3694.866 0 00-8.404 21.201 594.582 594.582 0 01-4.011 10.887 594.582 594.582 0 00-4.011 10.887 1503.637 1503.637 0 00-15.853 42.975c-4.966 14.134-9.232 26.804-12.797 38.009l-14.898 3.438c-.255-.764-.446-1.4-.573-1.91a6.28 6.28 0 01-.191-1.528c-4.839-15.535-11.587-34.826-20.246-57.873-8.659-23.047-25.212-64.749-49.66-125.105a2275.517 2275.517 0 00-8.595-21.201c-2.674-6.494-5.284-12.288-7.831-17.381-5.093-9.677-10.378-16.999-15.853-21.965-5.475-4.966-12.033-7.449-19.673-7.449h-.764zm293.87 0v-10.696c1.528.255 2.992.382 4.393.382 1.4 0 2.865.127 4.393.382 3.82.255 7.895.382 12.224.382h15.28c9.677 0 17.19-.191 22.538-.573 5.348-.382 9.677-.7 12.988-.955 1.273 0 2.547-.064 3.82-.191a38.368 38.368 0 013.82-.191 154.107 154.107 0 0115.28-.764c26.995 0 47.24 6.94 60.738 20.819 13.497 13.88 20.246 30.114 20.246 48.705 0 19.355-4.775 34.57-14.325 45.649-9.55 11.078-20.055 19.418-31.515 25.021-6.112 2.801-11.97 5.03-17.572 6.685-5.603 1.655-10.569 2.865-14.898 3.629v1.91c11.46 1.019 23.557 5.284 36.29 12.797 12.733 7.513 27.759 24.512 45.076 50.997 10.696 16.044 19.61 26.995 26.74 32.852 7.13 5.857 14.007 9.168 20.628 9.932h6.112v8.404h-11.078c-12.479 0-23.175-2.101-32.088-6.303s-17.572-10.632-25.976-19.291c-4.33-4.584-8.85-9.805-13.561-15.662-4.711-5.857-9.614-12.224-14.707-19.1a109.825 109.825 0 01-3.056-4.011 109.825 109.825 0 00-3.056-4.011c-8.404-11.46-17.381-21.965-26.931-31.515s-21.074-14.325-34.571-14.325h-11.078c0 14.516.064 23.43.191 26.74.127 3.31.318 5.603.573 6.876 0 .255.064.446.191.573.127.127.191.318.191.573.255 1.273.51 3.884.764 7.831.255 3.947.382 11.906.382 23.875 0 9.932 1.846 17.636 5.539 23.111 3.693 5.475 8.722 8.213 15.089 8.213 1.019 0 2.101-.127 3.247-.382s2.228-.51 3.247-.764V1453c-4.33 0-7.958-.064-10.887-.191-2.929-.127-5.539-.318-7.831-.573-1.019 0-1.974-.064-2.865-.191a20.285 20.285 0 00-2.865-.191c-.51-.255-1.082-.382-1.719-.382h-1.719c-1.273 0-2.483-.064-3.629-.191a32.894 32.894 0 00-3.629-.191h-14.134c-1.273 0-2.483.064-3.629.191a32.894 32.894 0 01-3.629.191c-1.273 0-2.547.064-3.82.191-1.273.127-2.42.318-3.438.573-3.056.255-6.176.446-9.359.573-3.183.127-7.322.191-12.415.191v-11.078c1.273.255 2.483.51 3.629.764 1.146.255 2.228.382 3.247.382 9.932-.255 16.235-7.322 18.909-21.201 2.674-13.88 4.011-30.114 4.011-48.705v-12.224c0-4.075-.127-8.15-.382-12.224v-4.202c0-4.839-.064-9.614-.191-14.325a516.13 516.13 0 01-.191-13.943v-25.594c.51-25.976-.127-46.859-1.91-62.648-1.783-15.79-8.404-23.684-19.864-23.684h-7.258zm56.154 131.026a60.54 60.54 0 006.685.382h6.303c24.957 0 42.848-4.839 53.671-14.516s17.636-20.373 20.437-32.088a63.51 63.51 0 002.101-10.696c.382-3.565.573-7.003.573-10.314 0-22.665-6.048-38.773-18.145-48.323-12.097-9.55-25.53-14.962-40.301-16.235a29.013 29.013 0 00-4.775-.382h-5.157c-3.565 0-7.067.191-10.505.573a243.19 243.19 0 00-10.123 1.337 2230.439 2230.439 0 00-1.528 82.512c0 7.895.064 15.853.191 23.875s.318 15.98.573 23.875zM803.13 1319.3c0-35.399 11.778-66.086 35.335-92.062 23.557-25.976 56.472-38.964 98.747-38.964 37.69 0 67.869 13.752 90.534 41.256 22.665 27.504 33.998 58.446 33.998 92.826 0 40.492-12.606 73.217-37.818 98.174-25.212 24.957-56.79 37.436-94.736 37.436-38.2 0-68.187-13.37-89.961-40.11-21.774-26.74-33.68-56.154-35.717-88.242a36.476 36.476 0 01-.382-5.157v-5.157zm33.998-8.022c0 37.69 9.486 69.524 28.459 95.5s43.23 38.964 72.771 38.964c29.287 0 51.379-10.887 66.277-32.661 14.898-21.774 22.347-49.214 22.347-82.321 0-39.728-10.06-71.434-30.178-95.118-20.119-23.684-42.657-35.526-67.614-35.526-5.093 0-10.505.446-16.235 1.337-5.73.891-11.651 2.483-17.763 4.775-14.516 5.603-27.822 16.299-39.919 32.088-12.097 15.79-18.145 40.11-18.145 72.962zm261.4-106.96v-10.696c1.528.255 2.992.382 4.393.382 1.4 0 2.865.127 4.393.382 3.82.255 7.895.382 12.224.382h15.28c9.677 0 17.19-.191 22.538-.573 5.348-.382 9.677-.7 12.988-.955 1.273 0 2.547-.064 3.82-.191a38.368 38.368 0 013.82-.191 154.107 154.107 0 0115.28-.764c26.995 0 47.24 6.94 60.738 20.819 13.497 13.88 20.246 30.114 20.246 48.705 0 19.355-4.775 34.57-14.325 45.649-9.55 11.078-20.055 19.418-31.515 25.021-6.112 2.801-11.97 5.03-17.572 6.685-5.603 1.655-10.569 2.865-14.898 3.629v1.91c11.46 1.019 23.557 5.284 36.29 12.797 12.733 7.513 27.759 24.512 45.076 50.997 10.696 16.044 19.61 26.995 26.74 32.852 7.13 5.857 14.007 9.168 20.628 9.932h6.112v8.404h-11.078c-12.479 0-23.175-2.101-32.088-6.303s-17.572-10.632-25.976-19.291c-4.33-4.584-8.85-9.805-13.561-15.662-4.711-5.857-9.614-12.224-14.707-19.1a109.825 109.825 0 01-3.056-4.011 109.825 109.825 0 00-3.056-4.011c-8.404-11.46-17.38-21.965-26.931-31.515-9.55-9.55-21.074-14.325-34.571-14.325h-11.078c0 14.516.064 23.43.191 26.74.127 3.31.318 5.603.573 6.876 0 .255.064.446.191.573.127.127.191.318.191.573.255 1.273.51 3.884.764 7.831.255 3.947.382 11.906.382 23.875 0 9.932 1.846 17.636 5.539 23.111 3.693 5.475 8.722 8.213 15.089 8.213 1.019 0 2.101-.127 3.247-.382s2.228-.51 3.247-.764V1453c-4.33 0-7.958-.064-10.887-.191-2.929-.127-5.539-.318-7.831-.573-1.019 0-1.974-.064-2.865-.191a20.286 20.286 0 00-2.865-.191c-.51-.255-1.082-.382-1.719-.382h-1.719c-1.273 0-2.483-.064-3.629-.191a32.894 32.894 0 00-3.629-.191h-14.134c-1.273 0-2.483.064-3.629.191a32.894 32.894 0 01-3.629.191c-1.273 0-2.547.064-3.82.191-1.273.127-2.42.318-3.438.573-3.056.255-6.176.446-9.359.573-3.183.127-7.322.191-12.415.191v-11.078c1.273.255 2.483.51 3.629.764 1.146.255 2.228.382 3.247.382 9.932-.255 16.235-7.322 18.909-21.201 2.674-13.88 4.011-30.114 4.011-48.705v-12.224c0-4.075-.127-8.15-.382-12.224v-4.202c0-4.839-.064-9.614-.191-14.325a516.146 516.146 0 01-.191-13.943v-25.594c.51-25.976-.127-46.859-1.91-62.648-1.783-15.79-8.404-23.684-19.864-23.684h-7.258zm56.154 131.026a60.54 60.54 0 006.685.382h6.303c24.957 0 42.848-4.839 53.671-14.516s17.636-20.373 20.437-32.088a63.51 63.51 0 002.101-10.696c.382-3.565.573-7.003.573-10.314 0-22.665-6.048-38.773-18.145-48.323-12.097-9.55-25.53-14.962-40.301-16.235a29.013 29.013 0 00-4.775-.382h-5.157c-3.565 0-7.067.191-10.505.573-3.438.382-6.812.828-10.123 1.337a2230.421 2230.421 0 00-1.528 82.512c0 7.895.064 15.853.191 23.875s.318 15.98.573 23.875zm304.566-147.452l14.516-3.82c.255.51.446 1.019.573 1.528a6.28 6.28 0 01.191 1.528 502.37 502.37 0 003.247 10.887 290.882 290.882 0 013.247 11.269c6.876 22.156 14.77 46.095 23.684 71.816 8.913 25.721 21.137 59.72 36.672 101.994a416.285 416.285 0 003.247 9.359 481.055 481.055 0 003.629 9.741c3.82 10.187 8.34 19.418 13.561 27.695 5.22 8.277 12.033 12.415 20.437 12.415h9.55V1453c-8.15 0-13.497-.127-16.044-.382-2.547-.255-4.457-.637-5.73-1.146-1.528-.255-3.502-.51-5.921-.764-2.42-.255-7.576-.382-15.471-.382a120.9 120.9 0 00-7.067.191c-2.165.127-4.266.191-6.303.191a76.184 76.184 0 01-5.348.573c-1.783.127-3.693.318-5.73.573-2.801.255-5.985.446-9.55.573-3.565.127-7.767.318-12.606.573v-10.696h9.168c.51 0 1.146-.064 1.91-.191a15.082 15.082 0 002.292-.573c1.783-.51 3.502-1.846 5.157-4.011 1.655-2.165 2.483-5.666 2.483-10.505 0-1.783-.191-3.756-.573-5.921-.382-2.165-.828-4.52-1.337-7.067a254.155 254.155 0 00-1.528-6.494l-1.528-6.112a21.777 21.777 0 01-1.146-3.82c-.255-1.273-.637-2.674-1.146-4.202a727.097 727.097 0 00-4.202-13.752c-1.528-4.839-3.565-10.187-6.112-16.044-8.15 1.019-15.853 1.655-23.111 1.91-7.258.255-14.198.382-20.819.382-8.659 0-16.553-.255-23.684-.764-7.13-.51-13.243-1.019-18.336-1.528a416.877 416.877 0 00-3.247 8.404 674.269 674.269 0 00-3.629 9.932 31.125 31.125 0 00-1.91 4.775 51.803 51.803 0 01-1.91 5.157 212.738 212.738 0 00-4.584 15.662c-1.273 5.093-1.91 9.423-1.91 12.988v6.494c0 3.82.764 7.322 2.292 10.505 1.528 3.183 5.475 4.775 11.842 4.775h11.078V1453c-1.528 0-3.947-.064-7.258-.191-3.31-.127-7.13-.318-11.46-.573-3.82-.51-7.13-.955-9.932-1.337a188.51 188.51 0 00-8.404-.955h-4.202c-1.528 0-2.992.064-4.393.191-1.4.127-2.738.191-4.011.191-2.037.255-4.138.573-6.303.955s-4.902.7-8.213.955c-.764 0-1.528.064-2.292.191-.764.127-1.655.191-2.674.191-2.292 0-4.648.064-7.067.191-2.42.127-5.03.191-7.831.191v-10.696h3.82c7.64 0 14.07-2.738 19.291-8.213 5.22-5.475 10.25-13.434 15.089-23.875 2.547-5.857 5.22-12.415 8.022-19.673 2.801-7.258 5.73-15.216 8.786-23.875a8831.116 8831.116 0 0119.482-53.098 2103.676 2103.676 0 0016.426-45.84 2308.825 2308.825 0 007.64-22.538 622.698 622.698 0 007.258-23.302 309.232 309.232 0 004.966-16.426c1.528-5.603 3.183-11.46 4.966-17.572zm2.674 46.986h-2.674c-2.292 9.932-4.648 19.036-7.067 27.313a917.733 917.733 0 01-7.449 24.257 239.947 239.947 0 01-2.483 7.067 239.947 239.947 0 00-2.483 7.067 45.447 45.447 0 00-1.337 3.82 45.447 45.447 0 01-1.337 3.82c0 .255-.064.51-.191.764-.127.255-.191.51-.191.764a1181.468 1181.468 0 00-4.966 15.28c-1.783 5.603-4.457 13.752-8.022 24.448 8.15.51 15.598.891 22.347 1.146 6.749.255 12.924.382 18.527.382 7.13 0 13.561-.191 19.291-.573 5.73-.382 11.014-.7 15.853-.955-1.273-4.584-2.483-8.531-3.629-11.842a878.564 878.564 0 01-3.247-9.55c0-.255-.064-.573-.191-.955a2.397 2.397 0 00-.573-.955 169.902 169.902 0 01-2.101-5.921l-2.101-6.303c-9.168-24.957-15.471-43.166-18.909-54.626-3.438-11.46-5.794-19.61-7.067-24.448zm159.406-30.56v-10.696c4.839.51 9.932.891 15.28 1.146 5.348.255 11.587.382 18.718.382 7.385 0 13.561-.191 18.527-.573l12.415-.955c1.273 0 2.42-.064 3.438-.191a48.207 48.207 0 003.438-.573c1.528 0 2.992-.064 4.393-.191 1.4-.127 2.865-.318 4.393-.573 1.783 0 3.502-.064 5.157-.191a67.276 67.276 0 015.157-.191c28.013 0 48.387 7.958 61.12 23.875 12.733 15.917 19.1 33.425 19.1 52.525 0 22.41-7.64 40.237-22.92 53.48-15.28 13.243-32.215 20.246-50.806 21.01h-3.056c-3.31 0-6.494-.191-9.55-.573-3.056-.382-5.73-.828-8.022-1.337v-9.55c2.037.255 4.075.573 6.112.955s3.947.573 5.73.573c15.535-.255 28.204-6.621 38.009-19.1 9.805-12.479 14.707-27.122 14.707-43.93 0-18.336-6.048-33.743-18.145-46.222s-28.714-18.59-49.851-18.336c-2.547 0-5.157.064-7.831.191a62.531 62.531 0 00-8.213.955c-.255 26.995-.382 50.297-.382 69.906v55.39c0 3.056-.064 6.24-.191 9.55-.127 3.31-.191 6.621-.191 9.932a202.163 202.163 0 00-.382 12.606v17.19c0 15.535 1.273 29.669 3.82 42.402 2.547 12.733 8.404 19.1 17.572 19.1h12.224V1453h-6.494c-4.075 0-7.449-.064-10.123-.191a150.792 150.792 0 01-7.831-.573 24.577 24.577 0 00-3.247-.573 32.894 32.894 0 00-3.629-.191c-1.273 0-2.61-.064-4.011-.191a44.368 44.368 0 00-4.011-.191h-15.853c-2.42 0-5.03.127-7.831.382-1.019 0-1.974.064-2.865.191-.891.127-1.846.191-2.865.191-2.801.51-5.73.828-8.786.955-3.056.127-7.13.191-12.224.191v-10.696h8.022c8.659 0 14.198-4.711 16.617-14.134 2.42-9.423 3.756-19.737 4.011-30.942v-23.684c.255-6.367.318-12.733.191-19.1a955.192 955.192 0 01-.191-19.1v-19.1c0-22.41-.127-37.5-.382-45.267-.255-7.767-.51-13.943-.764-18.527 0-2.547-.064-5.22-.191-8.022-.127-2.801-.318-6.749-.573-11.842v-1.146c0-1.528-.064-3.31-.191-5.348-.127-2.037-.573-4.075-1.337-6.112-1.019-4.075-3.183-7.704-6.494-10.887-3.31-3.183-8.786-4.775-16.426-4.775h-2.292zM1829.248 1453v-11.078h2.292c13.497 0 21.456-5.666 23.875-16.999 2.42-11.333 3.884-25.148 4.393-41.447v-11.46c.255-6.621.318-13.179.191-19.673-.127-6.494-.191-13.052-.191-19.673v-19.864c0-3.565.064-7.322.191-11.269s.191-8.086.191-12.415c0-2.801.064-5.603.191-8.404s.191-5.603.191-8.404v-8.786c0-15.535-1.4-29.35-4.202-41.447-2.801-12.097-9.423-18.145-19.864-18.145h-2.292c-.764 0-1.655.127-2.674.382v-10.696h12.606c1.273 0 2.483.064 3.629.191s2.228.191 3.247.191c.51 0 1.019.064 1.528.191.51.127 1.146.191 1.91.191s1.592.064 2.483.191 1.846.191 2.865.191c2.547.255 5.03.446 7.449.573 2.42.127 4.902.064 7.449-.191h7.258a34.88 34.88 0 003.438-.191 34.88 34.88 0 013.438-.191c1.019 0 1.974-.064 2.865-.191a17.633 17.633 0 012.483-.191c.764 0 1.4-.064 1.91-.191a6.28 6.28 0 011.528-.191c1.019 0 2.101-.064 3.247-.191a32.894 32.894 0 013.629-.191h12.606v10.696h-8.022c-10.187 0-16.235 9.04-18.145 27.122-1.91 18.081-2.865 52.461-2.865 103.14v17.954c-.255 36.418 1.655 60.61 5.73 72.58 4.075 11.97 18.59 17.954 43.548 17.954 3.565 0 7.895-.51 12.988-1.528 5.093-1.019 10.441-3.056 16.044-6.112 5.603-3.565 11.142-8.659 16.617-15.28 5.475-6.621 9.868-15.662 13.179-27.122h12.224a155.519 155.519 0 01-1.528 6.303c-.51 1.91-1.019 3.756-1.528 5.539a61.178 61.178 0 01-1.719 5.157 111.92 111.92 0 00-1.719 4.775 239.947 239.947 0 01-2.483 7.067c-.891 2.42-1.846 5.03-2.865 7.831a710.39 710.39 0 01-2.101 5.539c-.637 1.655-1.337 3.12-2.101 4.393-3.565 7.13-7.385 11.651-11.46 13.561-4.075 1.91-9.55 2.865-16.426 2.865-8.913 0-17.063-.255-24.448-.764-7.385-.51-14.516-1.019-21.392-1.528a7.21 7.21 0 00-2.292-.382 7.21 7.21 0 01-2.292-.382 951.192 951.192 0 01-18.527-.955c-6.24-.382-13.052-.573-20.437-.573h-9.932c-3.565.255-7.704.51-12.415.764-4.711.255-12.542.51-23.493.764zm309.914-265.108l14.516-3.82c.255.51.446 1.019.573 1.528a6.28 6.28 0 01.191 1.528 502.37 502.37 0 003.247 10.887 290.882 290.882 0 013.247 11.269c6.876 22.156 14.77 46.095 23.684 71.816 8.913 25.721 21.137 59.72 36.672 101.994a416.285 416.285 0 003.247 9.359 481.055 481.055 0 003.629 9.741c3.82 10.187 8.34 19.418 13.561 27.695 5.22 8.277 12.033 12.415 20.437 12.415h9.55V1453c-8.15 0-13.497-.127-16.044-.382-2.547-.255-4.457-.637-5.73-1.146-1.528-.255-3.502-.51-5.921-.764-2.42-.255-7.576-.382-15.471-.382a120.9 120.9 0 00-7.067.191c-2.165.127-4.266.191-6.303.191a76.184 76.184 0 01-5.348.573c-1.783.127-3.693.318-5.73.573-2.801.255-5.985.446-9.55.573-3.565.127-7.767.318-12.606.573v-10.696h9.168c.51 0 1.146-.064 1.91-.191a15.082 15.082 0 002.292-.573c1.783-.51 3.502-1.846 5.157-4.011 1.655-2.165 2.483-5.666 2.483-10.505 0-1.783-.191-3.756-.573-5.921-.382-2.165-.828-4.52-1.337-7.067a254.155 254.155 0 00-1.528-6.494l-1.528-6.112a21.777 21.777 0 01-1.146-3.82c-.255-1.273-.637-2.674-1.146-4.202a727.097 727.097 0 00-4.202-13.752c-1.528-4.839-3.565-10.187-6.112-16.044-8.15 1.019-15.853 1.655-23.111 1.91-7.258.255-14.198.382-20.819.382-8.659 0-16.553-.255-23.684-.764-7.13-.51-13.243-1.019-18.336-1.528a416.877 416.877 0 00-3.247 8.404 674.269 674.269 0 00-3.629 9.932 31.125 31.125 0 00-1.91 4.775 51.803 51.803 0 01-1.91 5.157 212.738 212.738 0 00-4.584 15.662c-1.273 5.093-1.91 9.423-1.91 12.988v6.494c0 3.82.764 7.322 2.292 10.505 1.528 3.183 5.475 4.775 11.842 4.775h11.078V1453c-1.528 0-3.947-.064-7.258-.191-3.31-.127-7.13-.318-11.46-.573-3.82-.51-7.13-.955-9.932-1.337a188.51 188.51 0 00-8.404-.955h-4.202c-1.528 0-2.992.064-4.393.191-1.4.127-2.738.191-4.011.191-2.037.255-4.138.573-6.303.955s-4.902.7-8.213.955c-.764 0-1.528.064-2.292.191-.764.127-1.655.191-2.674.191-2.292 0-4.648.064-7.067.191-2.42.127-5.03.191-7.831.191v-10.696h3.82c7.64 0 14.07-2.738 19.291-8.213 5.22-5.475 10.25-13.434 15.089-23.875 2.547-5.857 5.22-12.415 8.022-19.673 2.801-7.258 5.73-15.216 8.786-23.875a8831.116 8831.116 0 0119.482-53.098 2103.676 2103.676 0 0016.426-45.84 2308.825 2308.825 0 007.64-22.538 622.698 622.698 0 007.258-23.302 309.232 309.232 0 004.966-16.426c1.528-5.603 3.183-11.46 4.966-17.572zm2.674 46.986h-2.674c-2.292 9.932-4.648 19.036-7.067 27.313a917.733 917.733 0 01-7.449 24.257 239.947 239.947 0 01-2.483 7.067 239.947 239.947 0 00-2.483 7.067 45.447 45.447 0 00-1.337 3.82 45.447 45.447 0 01-1.337 3.82c0 .255-.064.51-.191.764-.127.255-.191.51-.191.764a1181.468 1181.468 0 00-4.966 15.28c-1.783 5.603-4.457 13.752-8.022 24.448 8.15.51 15.598.891 22.347 1.146 6.749.255 12.924.382 18.527.382 7.13 0 13.561-.191 19.291-.573 5.73-.382 11.014-.7 15.853-.955-1.273-4.584-2.483-8.531-3.629-11.842a878.564 878.564 0 01-3.247-9.55c0-.255-.064-.573-.191-.955a2.397 2.397 0 00-.573-.955 169.902 169.902 0 01-2.101-5.921l-2.101-6.303c-9.168-24.957-15.471-43.166-18.909-54.626-3.438-11.46-5.794-19.61-7.067-24.448zm293.106-41.256v22.347c0 4.457.127 9.104.382 13.943 0 4.584.064 9.04.191 13.37s.191 7.895.191 10.696h-10.696c-2.547-15.79-6.621-27.377-12.224-34.762-5.603-7.385-11.587-12.351-17.954-14.898-3.056-1.273-6.048-2.101-8.977-2.483-2.929-.382-5.666-.573-8.213-.573-17.063 0-28.714 4.33-34.953 12.988-6.24 8.659-9.359 19.355-9.359 32.088 0 8.404 2.738 15.407 8.213 21.01a161.016 161.016 0 0017.763 15.662 338.408 338.408 0 003.629 2.865 36.445 36.445 0 003.629 2.483 896.616 896.616 0 0012.988 9.55l13.752 9.932c13.243 10.187 25.467 21.647 36.672 34.38 11.205 12.733 16.808 27.377 16.808 43.93 0 1.273-.064 2.483-.191 3.629a29.472 29.472 0 00-.191 3.247c-2.037 16.299-10.378 31.197-25.021 44.694-14.643 13.497-33.425 20.246-56.345 20.246-24.703 0-42.084-4.138-52.143-12.415-10.06-8.277-15.089-24.894-15.089-49.851v-6.876h6.494l4.966-.382c2.292 17.827 7.767 31.77 16.426 41.829 8.659 10.06 21.647 15.089 38.964 15.089 15.79 0 27.568-4.075 35.335-12.224 7.767-8.15 12.797-17.063 15.089-26.74a40.605 40.605 0 001.528-7.64c.255-2.547.382-4.966.382-7.258 0-12.479-4.457-23.366-13.37-32.661a220.698 220.698 0 00-29.032-25.403 30.026 30.026 0 01-2.101-1.528 30.026 30.026 0 00-2.101-1.528 603.764 603.764 0 00-12.606-8.977 620.671 620.671 0 01-14.134-10.123c-9.932-7.895-19.1-16.999-27.504-27.313s-12.606-22.22-12.606-35.717c0-3.056.318-6.494.955-10.314.637-3.82 1.719-7.64 3.247-11.46 3.565-8.913 10.441-17.063 20.628-24.448 10.187-7.385 25.976-11.078 47.368-11.078 3.31 0 6.176.064 8.595.191a93.95 93.95 0 016.685.573 42.46 42.46 0 003.629.573c1.146.127 2.228.191 3.247.191 1.019 0 2.101.127 3.247.382s2.228.382 3.247.382a42.46 42.46 0 003.629.573 42.46 42.46 0 013.629.573c1.019 0 2.165.064 3.438.191a34.88 34.88 0 003.438.191h4.011c1.4 0 2.865-.127 4.393-.382 1.273 0 2.61-.064 4.011-.191 1.4-.127 2.738-.318 4.011-.573zm45.188 65.322h-11.078c4.075-22.665 6.749-37.054 8.022-43.166 1.273-6.112 2.165-10.696 2.674-13.752v-.764c0-.255.127-.51.382-.764 0-.764.064-1.719.191-2.865.127-1.146.318-2.483.573-4.011 21.137 2.547 40.683 4.138 58.637 4.775 17.954.637 31.642.955 41.065.955 4.584 0 12.797-.127 24.639-.382 11.842-.255 24.384-.764 37.627-1.528 9.423-.255 18.527-.764 27.313-1.528 8.786-.764 16.362-1.528 22.729-2.292-.255 2.547-.828 8.85-1.719 18.909-.891 10.06-2.992 25.53-6.303 46.413h-11.842c.51-3.056.891-5.921 1.146-8.595.255-2.674.382-5.157.382-7.449 0-14.77-4.011-23.875-12.033-27.313-8.022-3.438-16.999-5.157-26.931-5.157h-6.112a12.558 12.558 0 01-3.056.382h-17.572c-2.037 0-4.075.064-6.112.191a92.162 92.162 0 01-5.73.191c-.255 6.876-.51 15.216-.764 25.021-.255 9.805-.51 19.928-.764 30.369 0 11.205-.064 22.029-.191 32.47-.127 10.441-.191 19.1-.191 25.976 0 3.31-.064 6.876-.191 10.696a367.97 367.97 0 00-.191 12.224c0 4.075-.064 8.34-.191 12.797a474.884 474.884 0 00-.191 13.561c0 17.063 1.464 32.788 4.393 47.177 2.929 14.389 9.74 21.71 20.437 21.965 1.273 0 2.483-.127 3.629-.382s2.228-.51 3.247-.764V1453h-11.842c-1.273 0-2.547-.064-3.82-.191a38.368 38.368 0 00-3.82-.191 56.323 56.323 0 00-4.584-.573 85.482 85.482 0 01-4.966-.573 125.077 125.077 0 00-13.752-.764c-2.801 0-5.539.064-8.213.191-2.674.127-5.412.318-8.213.573-1.273 0-2.547.064-3.82.191a39.517 39.517 0 00-3.82.573c-2.801.255-5.794.446-8.977.573-3.183.127-7.194.191-12.033.191v-10.696c1.019.255 1.974.446 2.865.573.891.127 1.719.191 2.483.191 12.224-.255 19.227-10.06 21.01-29.414 1.783-19.355 2.547-41.256 2.292-65.704a26.736 26.736 0 01-.382-4.393v-54.053a4339.214 4339.214 0 00-.955-32.852 9090.373 9090.373 0 01-1.337-45.458h-20.628c-16.299 0-29.86 2.356-40.683 7.067s-18.4 18.272-22.729 40.683z"/>
  </g>
</svg>
