<svg xmlns="http://www.w3.org/2000/svg" viewBox="0 0 1439 784">
  <g fill="none" fill-rule="evenodd">
    <path fill="#F16922" d="M714.5 0L655 59.5l59.5 59.5L774 59.5z"/>
    <path fill="#132B84" d="M667 180.606L604.783 119 596 127.697 667 198zM437.376 285L424 298.409 666 541v-26.827zM666 374v-22.596L518.32 204 507 215.298z"/>
    <path fill="#F16922" d="M798.727 97L761 134.922V238l89-89.458zM761 452.7V539l240-239.848L957.82 256z"/>
    <path fill="#F3671F" d="M882.318 180L761 300.92V388l165-164.457z"/>
    <g fill="#132B84">
      <path d="M63.307 665.221h-1.382c-2.011 8.917-5.456 20.51-10.33 34.788-3.166 9.279-6 17.902-8.5 25.862 9.221.66 16.372.99 21.45.99 6.225 0 12.505-.33 18.831-.99a183.63 183.63 0 00-2.919-9.251c-.987-2.849-2.109-6.027-3.36-9.549-7.216-19.612-11.811-33.56-13.79-41.85m-1.382-24.681l7.658-2.216c8.83 30.433 16.419 54.901 22.764 73.408 6.34 18.506 11.656 32.273 15.94 41.306 4.282 9.032 7.825 14.947 10.622 17.744 2.803 2.793 5.522 4.191 8.156 4.191h5.093v5.678h-7.513c-.657 0-2.57-.241-5.736-.72a64.9 64.9 0 00-9.636-.71c-3.757 0-7.397.213-10.921.64-3.822.525-6.727.79-8.7.79h-5.093v-5.678h4.897c4.185 0 6.275-2.695 6.275-8.089 0-1.222-.344-3.508-1.038-6.863-2.965-11.546-5.735-20.43-8.305-26.647-8.5.79-16.195 1.185-23.08 1.185-6.918 0-14.4-.395-22.439-1.185-2.77 6.872-4.985 12.713-6.652 17.517-1.662 4.805-2.49 9-2.49 12.583 0 4.08.484 7.016 1.457 8.81.972 1.797 2.988 2.69 6.056 2.69h5.88v5.677h-6.276c-1.815 0-3.98-.241-6.503-.72-2.519-.474-5.558-.71-9.115-.71-3.166 0-6.196.213-9.096.64-2.705.525-4.795.79-6.28.79H.536v-5.678h4.497c4.255 0 9.194-5.324 14.827-15.988 5.633-10.659 11.154-23.413 16.559-38.272 5.405-14.854 10.223-29.133 14.459-42.835 4.232-13.707 7.914-26.145 11.047-37.338M174.926 709.884v41.455c0 6.807.405 11.89 1.21 15.244.81 3.36 2.654 5.836 5.54 7.43 2.881 1.598 7.509 2.393 13.868 2.393 19.845 0 29.765-11.384 29.765-34.151 0-8.684-2.09-15.486-6.28-20.407-4.185-4.916-9.245-8.238-15.18-9.966-5.931-1.729-12.146-2.593-18.64-2.593-4.613 0-8.044.2-10.283.595m0-23.265v16.992c2.672.298 4.762.446 6.28.446 6.694 0 12.457-1.315 17.303-3.95 4.846-2.634 8.51-6.1 10.977-10.398 2.477-4.298 3.71-8.898 3.71-13.804 0-4.317-1.056-8.526-3.165-12.648-2.11-4.116-4.977-7.485-8.603-10.1-3.627-2.617-7.467-3.927-11.522-3.927h-13.793a598.525 598.525 0 00-1.187 37.39m-15.181 53.005v-67.34c0-7.666-.6-13.456-1.802-17.377-1.205-3.917-3.9-5.878-8.086-5.878h-5.488v-5.626c4.348 0 8.267.232 11.759.696 3.496.456 5.982.688 7.462.688 2.607 0 7.165-.404 13.691-1.213 6.522-.799 12.09-1.203 16.703-1.203 11.564 0 20.218 3.141 25.967 9.423 5.75 6.286 8.621 13.59 8.621 21.912 0 4.512-1.243 8.935-3.733 13.275-2.486 4.344-6.164 8.08-11.024 11.202-4.864 3.123-10.674 5.213-17.429 6.268v1.83h4.055c3.096 0 6.857.498 11.27 1.502 4.418 1.008 8.92 2.797 13.5 5.38 4.581 2.584 8.445 6.3 11.592 11.151 3.151 4.851 4.725 10.9 4.725 18.14 0 4.535-.791 9.14-2.374 13.795-1.578 4.65-4.036 8.898-7.36 12.731-3.329 3.833-7.7 6.942-13.123 9.325-5.419 2.384-11.838 3.578-19.25 3.578-5.139 0-8.756-.116-10.846-.344-2.09-.232-5.344-.678-9.762-1.333-4.413-.66-8.138-.985-11.163-.985-1.718 0-4.297.237-7.737.71-3.445.479-6.057.716-7.835.716h-7.71v-5.673h4.256c3.36 0 5.847-1.826 7.467-5.478 1.61-3.657 2.625-7.88 3.035-12.69.414-4.809.619-10.533.619-17.182M305.954 780.65h-9.534c-3.291 0-5.828-.242-7.607-.716-1.778-.478-4.296-.715-7.555-.715-3.096 0-5.996.214-8.691.641-2.966.525-5.191.79-6.671.79h-7.51v-5.678h4.256c4.613 0 7.555-2.876 8.826-8.633 1.266-5.757 1.9-13.855 1.9-24.282v-71.559c0-5.162-.303-9.195-.913-12.09-.61-2.894-1.988-5.17-4.13-6.834-2.14-1.664-5.455-2.49-9.938-2.49v-5.679c11.135.92 17.15 1.385 18.039 1.385 3.193 0 8.105-.232 14.724-.692 6.625-.46 11.764-.693 15.418-.693 9.823 0 17.932 1.9 24.342 5.697 6.406 3.805 11.033 8.702 13.887 14.687 2.849 5.99 4.273 12.336 4.273 19.045 0 7.31-1.838 13.967-5.511 19.99-3.678 6.02-8.645 10.756-14.911 14.217-6.261 3.452-13.02 5.18-20.269 5.18-3.296 0-6.4-.33-9.296-.989v-5.083c1.941.558 4.101.841 6.475.841 5.507 0 10.367-1.612 14.585-4.837 4.222-3.23 7.467-7.397 9.743-12.513 2.272-5.115 3.413-10.454 3.413-16.016 0-7.43-1.648-13.758-4.944-18.975-3.296-5.214-7.635-9.112-13.007-11.69-5.372-2.584-11.14-3.876-17.303-3.876-2.966 0-6.136.33-9.497.985v97.416c0 8.489.684 15.194 2.053 20.11 1.369 4.92 4.325 7.378 8.877 7.378h6.476v5.678zM379.035 705.61c0 12.605 2.184 24.374 6.55 35.302 4.367 10.924 10.633 19.668 18.789 26.238 8.16 6.566 17.61 9.846 28.36 9.846 10.38 0 19.109-2.714 26.18-8.145 7.067-5.432 12.3-12.764 15.698-21.991 3.393-9.233 5.092-19.543 5.092-30.931 0-9.116-1.247-17.828-3.733-26.14-2.49-8.308-6.066-15.692-10.73-22.145-4.665-6.454-10.195-11.5-16.587-15.157-6.396-3.652-13.319-5.478-20.767-5.478-8.142 0-15.93 1.91-23.364 5.724-7.435 3.82-13.542 10.106-18.319 18.865-4.78 8.749-7.169 20.09-7.169 34.011m-18.244 4.275c0-10.366 1.797-19.859 5.391-28.478 3.594-8.619 8.645-15.979 15.158-22.084 6.512-6.1 14.114-10.756 22.805-13.967 8.687-3.206 18.012-4.814 27.969-4.814 12.169 0 23.29 3.178 33.364 9.53 10.07 6.347 18.002 14.97 23.788 25.857 5.787 10.891 8.682 22.753 8.682 35.582 0 9.966-1.643 19.32-4.92 28.06-3.282 8.73-8.021 16.396-14.222 22.994-6.196 6.598-13.635 11.728-22.308 15.394-8.673 3.67-18.216 5.506-28.639 5.506-9.827 0-18.91-1.975-27.251-5.924-8.343-3.945-15.474-9.358-21.391-16.235-5.922-6.876-10.474-14.761-13.654-23.664-3.184-8.898-4.772-18.153-4.772-27.757M561.336 780.65h-9.533c-3.292 0-5.829-.242-7.607-.716-1.778-.478-4.297-.715-7.556-.715-3.095 0-5.995.214-8.69.641-2.966.525-5.191.79-6.672.79h-7.509v-5.678h4.255c4.614 0 7.556-2.876 8.827-8.633 1.266-5.757 1.899-13.855 1.899-24.282v-71.559c0-5.162-.303-9.195-.913-12.09-.61-2.894-1.987-5.17-4.129-6.834-2.141-1.664-5.456-2.49-9.939-2.49v-5.679c11.136.92 17.15 1.385 18.04 1.385 3.193 0 8.104-.232 14.724-.692 6.624-.46 11.764-.693 15.418-.693 9.822 0 17.932 1.9 24.342 5.697 6.406 3.805 11.033 8.702 13.887 14.687 2.849 5.99 4.273 12.336 4.273 19.045 0 7.31-1.839 13.967-5.512 19.99-3.677 6.02-8.644 10.756-14.91 14.217-6.262 3.452-13.021 5.18-20.27 5.18-3.295 0-6.4-.33-9.296-.989v-5.083c1.942.558 4.102.841 6.476.841 5.507 0 10.367-1.612 14.585-4.837 4.222-3.23 7.467-7.397 9.743-12.513 2.272-5.115 3.412-10.454 3.412-16.016 0-7.43-1.648-13.758-4.944-18.975-3.296-5.214-7.634-9.112-13.006-11.69-5.372-2.584-11.14-3.876-17.304-3.876-2.965 0-6.135.33-9.496.985v97.416c0 8.489.684 15.194 2.053 20.11 1.368 4.92 4.324 7.378 8.877 7.378h6.475v5.678zM676.171 665.221h-1.382c-2.011 8.917-5.456 20.51-10.33 34.788-3.166 9.279-6 17.902-8.5 25.862 9.221.66 16.372.99 21.45.99 6.225 0 12.505-.33 18.831-.99a183.629 183.629 0 00-2.919-9.251c-.987-2.849-2.109-6.027-3.36-9.549-7.216-19.612-11.811-33.56-13.79-41.85m-1.382-24.681l7.658-2.216c8.83 30.433 16.419 54.901 22.764 73.408 6.34 18.506 11.656 32.273 15.94 41.306 4.282 9.032 7.825 14.947 10.622 17.744 2.803 2.793 5.521 4.191 8.156 4.191h5.093v5.678h-7.509c-.66 0-2.574-.241-5.74-.72a64.854 64.854 0 00-9.636-.71c-3.757 0-7.397.213-10.921.64-3.822.525-6.727.79-8.7.79h-5.094v-5.678h4.898c4.185 0 6.275-2.695 6.275-8.089 0-1.222-.344-3.508-1.038-6.863-2.965-11.546-5.735-20.43-8.305-26.647-8.5.79-16.196 1.185-23.08 1.185-6.918 0-14.4-.395-22.439-1.185-2.77 6.872-4.986 12.713-6.652 17.517-1.662 4.805-2.49 9-2.49 12.583 0 4.08.484 7.016 1.456 8.81.973 1.797 2.99 2.69 6.057 2.69h5.88v5.677h-6.276c-1.815 0-3.98-.241-6.503-.72-2.519-.474-5.558-.71-9.115-.71-3.166 0-6.196.213-9.096.64-2.705.525-4.795.79-6.28.79H613.4v-5.678h4.497c4.255 0 9.194-5.324 14.827-15.988 5.633-10.659 11.154-23.413 16.559-38.272 5.405-14.854 10.223-29.133 14.459-42.835 4.232-13.707 7.914-26.145 11.047-37.338M803.367 780.65h-7.514c-1.815 0-3.263-.163-4.352-.493a20.825 20.825 0 00-3.19-.715c-1.037-.149-3.518-.223-7.443-.223-2.467 0-4.422.237-5.856.715-1.434.474-4.674.716-9.72.716h-7.313v-5.678h4.25c4.878 0 7.96-3.132 9.245-9.4 1.29-6.268 1.927-14.171 1.927-23.715v-64.106c0-6.514-.344-11.75-1.033-15.714-.698-3.968-2.202-7.118-4.525-9.45-2.328-2.338-5.745-3.504-10.26-3.504v-5.678c18.225.92 42.06 1.385 71.495 1.385 29.57 0 53.4-.465 71.5-1.385v5.678c-4.554 0-7.97 1.162-10.26 3.48-2.291 2.319-3.786 5.465-4.475 9.451-.698 3.977-1.042 9.223-1.042 15.737v66.727c0 8.716.712 15.979 2.127 21.787 1.42 5.803 4.413 8.707 8.999 8.707h4.255v5.678h-7.305c-1.615 0-4.166-.265-7.657-.79-2.137-.427-4.441-.641-6.909-.641a45.9 45.9 0 00-7.653.641c-3.822.525-6.592.79-8.305.79h-7.513v-5.678h4.255c4.31 0 7.183-2.207 8.598-6.635 1.42-4.428 2.127-10.422 2.127-17.986 0-1.385-.032-3.392-.098-6.022a240.28 240.28 0 01-.102-5.729v-86.31h-81.038v95.589c0 8.884.638 15.626 1.904 20.212 1.27 4.586 4.148 6.881 8.63 6.881h4.25v5.678zM975.928 642.566l7.714-2.026c4.218 13.725 8.086 25.857 11.592 36.4 3.51 10.547 6.033 17.888 7.564 22.037 1.537 4.14 4.26 11.356 8.184 21.639 3.925 10.282 6.955 18.432 9.097 24.453 3.365 9.144 6.587 16.416 9.673 21.815 3.082 5.394 7.006 8.09 11.792 8.09h3.654v5.677h-5.684c-2.309 0-5.605-.265-9.892-.79a70.445 70.445 0 00-9.543-.64c-3.161 0-6.197.213-9.097.64-3.496.525-6.06.79-7.713.79h-6.676v-5.678h3.021c3.855 0 6.34-1.003 7.463-3.006 1.121-2.007 1.685-5.445 1.685-10.315 0-4.08-.545-7.717-1.634-10.91-1.09-3.187-3.73-9.943-7.91-20.258-4.184-10.315-7.895-20.207-11.13-29.685-5.833-17.006-9.343-28.933-10.526-35.777h-1.042c-1.187 8.289-3.543 17.93-7.072 28.923a787.153 787.153 0 01-9.142 27.488c-3.296 9.34-5.833 16.537-7.616 21.587-1.779 5.05-3.045 9.182-3.785 12.388a43.903 43.903 0 00-1.113 9.892c0 3.457.457 5.933 1.36 7.43.907 1.495 2.946 2.243 6.112 2.243h4.492v5.678h-7.118c-1.713 0-4.348-.265-7.909-.79a62.385 62.385 0 00-9.096-.64c-3.035 0-6 .213-8.9.64-3.762.525-6.532.79-8.31.79h-5.684v-5.678h4.897c5.405 0 11.13-5.12 17.178-15.374 6.051-10.246 11.782-22.805 17.205-37.678 5.424-14.868 10.214-29.495 14.366-43.87 4.153-14.377 7.332-26.206 9.543-35.485M1112.07 665.221h-1.382c-2.01 8.917-5.456 20.51-10.33 34.788a1166.023 1166.023 0 00-8.5 25.862c9.227.66 16.377.99 21.451.99 6.229 0 12.504-.33 18.835-.99a188.527 188.527 0 00-2.919-9.251c-.987-2.849-2.113-6.027-3.36-9.549-7.221-19.612-11.816-33.56-13.794-41.85m-1.383-24.681l7.663-2.216c8.83 30.433 16.419 54.901 22.76 73.408 6.344 18.506 11.656 32.273 15.939 41.306 4.282 9.032 7.825 14.947 10.627 17.744 2.803 2.793 5.522 4.191 8.156 4.191h5.089v5.678h-7.51c-.66 0-2.574-.241-5.735-.72a64.946 64.946 0 00-9.636-.71c-3.761 0-7.402.213-10.926.64-3.822.525-6.722.79-8.7.79h-5.088v-5.678h4.892c4.185 0 6.28-2.695 6.28-8.089 0-1.222-.344-3.508-1.043-6.863-2.965-11.546-5.73-20.43-8.3-26.647-8.5.79-16.2 1.185-23.085 1.185-6.918 0-14.399-.395-22.434-1.185-2.77 6.872-4.99 12.713-6.652 17.517-1.662 4.805-2.495 9-2.495 12.583 0 4.08.484 7.016 1.457 8.81.973 1.797 2.993 2.69 6.056 2.69h5.885v5.677h-6.28c-1.816 0-3.98-.241-6.499-.72-2.518-.474-5.563-.71-9.12-.71-3.165 0-6.191.213-9.091.64-2.71.525-4.8.79-6.28.79h-7.313v-5.678h4.492c4.255 0 9.194-5.324 14.831-15.988 5.633-10.659 11.15-23.413 16.559-38.272 5.405-14.854 10.223-29.133 14.454-42.835 4.232-13.707 7.919-26.145 11.047-37.338M1310.172 679.188h-6.13c-.266-12.699-4.418-21.067-12.453-25.095-8.044-4.034-17.248-6.045-27.629-6.045h-5.484c-8.072 0-16.126 2.42-24.17 7.276-8.035 4.85-14.692 12.136-19.961 21.838-5.275 9.706-7.91 21.35-7.91 34.94 0 10.301 1.765 19.51 5.293 27.637 3.524 8.127 8.212 14.896 14.064 20.305 5.851 5.413 12.215 9.46 19.09 12.145 6.867 2.681 13.636 4.02 20.293 4.02 6.722 0 12.988-1.014 18.788-3.035 5.8-2.026 10.94-4.934 15.405-8.735a45.182 45.182 0 0010.804-13.498h6.676a67.285 67.285 0 01-.768 1.752c-.117.246-.238.544-.373.888-.13.348-.34.822-.614 1.43-.284.61-.587 1.278-.922 1.999-1.843 4.511-4.124 8.549-6.848 12.113-2.718 3.573-7.532 6.853-14.445 9.85-6.903 2.992-16.214 4.488-27.922 4.488-11.08 0-21.344-1.872-30.79-5.626-9.445-3.75-17.615-8.963-24.51-15.645-6.889-6.677-12.191-14.366-15.901-23.069-3.71-8.703-5.563-17.837-5.563-27.414 0-8.786 1.629-17.428 4.897-25.936 3.263-8.502 8.058-16.169 14.385-22.994 6.33-6.826 14.175-12.239 23.541-16.235 9.362-4 19.864-5.998 31.497-5.998 8.077 0 16.107.673 24.086 2.02 6.466 1.223 11.75 1.832 15.847 1.832 3.929 0 6.964-.335 9.11-.99-1.09 9.116-1.634 18.609-1.634 28.477 0 3.522.084 5.952.251 7.305M1325.747 675.14h-5.884c.363-1.747.647-3.16.843-4.247.2-1.082.395-2.24.596-3.452 1.615-8.586 2.485-13.228 2.616-13.916 1.187-6.286 1.927-10.677 2.225-13.177 16.088 2.04 33.722 3.057 52.907 3.057 2.737 0 10.283-.195 22.643-.59 15.069-.362 27.358-1.185 36.888-2.467-.494 8.652-1.914 20.249-4.25 34.792h-6.28c.525-2.895.79-5.79.79-8.689 0-5-1.08-8.688-3.24-11.077-2.16-2.388-5.087-3.898-8.779-4.54-3.692-.64-8.733-.96-15.13-.96h-14.975v95.194c0 8.721.791 15.918 2.37 21.592 1.582 5.673 4.845 8.512 9.79 8.512h4.254v5.678h-6.284c-2.04 0-3.613-.168-4.716-.493a21.04 21.04 0 00-3.39-.72c-1.154-.149-3.989-.223-8.504-.223-2.9 0-5.233.242-6.997.72-1.764.474-4.837.716-9.217.716h-7.472v-5.678h4.255c4.613 0 7.555-2.51 8.826-7.527 1.266-5.018 1.904-12.346 1.904-21.982v-95.79h-12.164c-6.987 0-12.57.558-16.736 1.677-4.175 1.116-7.676 3.495-10.511 7.128-2.83 3.638-4.958 9.125-6.378 16.462"/>
    </g>
  </g>
</svg>
