<?xml version="1.0" encoding="UTF-8"?>
<svg width="58px" height="58px" viewBox="0 0 58 58" version="1.1" xmlns="http://www.w3.org/2000/svg" xmlns:xlink="http://www.w3.org/1999/xlink">
    <!-- Generator: Sketch 59.1 (86144) - https://sketch.com -->
    <title>Path 5</title>
    <desc>Created with Sketch.</desc>
    <defs>
        <linearGradient x1="117.39446%" y1="5.0308922%" x2="0.262490428%" y2="50%" id="linearGradient-1">
            <stop stop-color="#F9A247" offset="0%"></stop>
            <stop stop-color="#F16922" offset="100%"></stop>
        </linearGradient>
        <path d="M35.626398,23.3718444 C42.345068,23.4065894 47.7832141,28.8446146 47.8179748,35.5634055 L47.8179748,35.5634055 L47.8179748,35.6893904 C47.7829723,42.4572695 42.2682922,47.9156071 35.5004131,47.8809516 C28.732534,47.8459647 23.2741965,42.3312846 23.308852,35.5634055 C23.3438388,28.7955264 28.8585189,23.3371889 35.626398,23.3718444 Z M26.0249471,0 L26.7196776,4.16898741 C26.7583678,4.56036272 27.0348816,4.8871738 27.414529,4.9901864 C29.6660554,5.47659446 31.8077985,6.37614106 33.7313048,7.64324433 C34.0676675,7.84721411 34.495073,7.82206549 34.805199,7.58013098 L34.805199,7.58013098 L38.2162217,5.17976826 L41.7537128,8.71725945 L39.3533501,12.1282821 C39.1586902,12.4370781 39.1586902,12.8301461 39.3533501,13.1389421 C40.5951839,15.091466 41.4726045,17.2531587 41.9431738,19.5188312 C42.0214005,19.8886851 42.3259647,20.1678589 42.7011385,20.2136826 L42.7011385,20.2136826 L46.8070126,20.908534 L46.8070126,25.8987204 L45.9858136,26.0881814 C43.334932,23.2072141 39.6044736,21.5594962 35.6895113,21.5401511 L35.6895113,21.5401511 L34.8683123,21.5401511 C34.0710529,16.696262 30.2859446,12.8930176 25.4458035,12.0725441 C19.1858539,11.0113451 13.2507809,15.2259144 12.1897028,21.4859849 C11.1285038,27.7460554 15.343073,33.6811285 21.6031436,34.7422065 C21.6031436,34.9949018 21.5400302,35.3107103 21.5400302,35.5634055 C21.540272,39.5320504 23.2145894,43.3165542 26.1510529,45.9858136 L26.1510529,45.9858136 L26.0247053,46.7437783 L21.0345189,46.7437783 L20.3396675,42.6379043 C20.2938438,42.2627305 20.01467,41.9581662 19.6448161,41.8799395 C17.4057431,41.3871234 15.2687154,40.5109118 13.3280403,39.2901159 C12.9957884,39.0982368 12.586398,39.0982368 12.2541461,39.2901159 L12.2541461,39.2901159 L8.84312343,41.6904786 L5.30575315,38.1531083 L7.70611587,34.7420856 C7.90077582,34.4332897 7.90077582,34.0402217 7.70611587,33.7314257 C6.46428212,31.7789018 5.58686146,29.6172091 5.11629219,27.3515365 C4.98958186,26.9620957 4.64028212,26.6877582 4.23197985,26.6566851 L4.23197985,26.6566851 L0.0628715365,25.9618338 L0.0628715365,20.9716474 L4.23197985,20.276796 C4.62335516,20.2381058 4.95016625,19.9615919 5.05317884,19.5819446 C5.5395869,17.3304181 6.4391335,15.1886751 7.70623678,13.2651688 C7.89811587,12.9329169 7.89811587,12.5235264 7.70623678,12.1912746 L7.70623678,12.1912746 L5.30587406,8.78025189 L8.84336524,5.24288161 L12.2545088,7.64324433 C12.5633048,7.83790428 12.9563728,7.83790428 13.2651688,7.64324433 C15.2176927,6.40141058 17.3793854,5.52398992 19.6450579,5.05342065 C20.0344987,4.92671033 20.3088363,4.57741058 20.3399093,4.16910831 L20.3399093,4.16910831 L21.0347607,0 L26.0249471,0 Z M43.1434156,32.9735819 C42.8643627,32.5548816 42.2986398,32.4418338 41.8800605,32.7208866 L41.8800605,32.7208866 L33.1629219,38.4691587 L29.8782469,33.605199 C29.599194,33.1864987 29.0335919,33.0734509 28.6148917,33.3525038 C28.1961914,33.6315567 28.0831436,34.1972796 28.3621965,34.6158589 L28.3621965,34.6158589 L32.152262,40.3008967 C32.2852594,40.5944584 32.5892191,40.7718287 32.9102267,40.7430529 C33.0973904,40.7505491 33.279597,40.6822368 33.4156171,40.5535919 L33.4156171,40.5535919 L42.8907204,34.2368161 L42.9818546,34.16753 C43.3243895,33.8716175 43.4010029,33.3599628 43.1434156,32.9735819 Z M23.4982368,13.7705592 C28.1636675,13.7888161 32.1500856,17.13733 32.973461,21.7296121 C27.3433149,22.8141461 22.9404937,27.2169673 21.8559597,32.8471134 C17.2361108,32.071738 13.8631738,28.0563023 13.8967859,23.3720101 C13.9312443,18.0836675 18.2097733,13.8050176 23.4982368,13.7705592 Z" id="path-2"></path>
        <filter x="-15.7%" y="-15.7%" width="131.4%" height="131.3%" filterUnits="objectBoundingBox" id="filter-3">
            <feOffset dx="0" dy="0" in="SourceAlpha" result="shadowOffsetOuter1"></feOffset>
            <feGaussianBlur stdDeviation="1" in="shadowOffsetOuter1" result="shadowBlurOuter1"></feGaussianBlur>
            <feColorMatrix values="0 0 0 0 1   0 0 0 0 0.403921569   0 0 0 0 0  0 0 0 0.501475087 0" type="matrix" in="shadowBlurOuter1" result="shadowMatrixOuter1"></feColorMatrix>
            <feOffset dx="0" dy="0" in="SourceAlpha" result="shadowOffsetOuter2"></feOffset>
            <feGaussianBlur stdDeviation="2.5" in="shadowOffsetOuter2" result="shadowBlurOuter2"></feGaussianBlur>
            <feColorMatrix values="0 0 0 0 1   0 0 0 0 0.485195436   0 0 0 0 0.301276677  0 0 0 0.295536495 0" type="matrix" in="shadowBlurOuter2" result="shadowMatrixOuter2"></feColorMatrix>
            <feMerge>
                <feMergeNode in="shadowMatrixOuter1"></feMergeNode>
                <feMergeNode in="shadowMatrixOuter2"></feMergeNode>
            </feMerge>
        </filter>
    </defs>
    <g id="web" stroke="none" stroke-width="1" fill="none" fill-rule="evenodd">
        <g id="5-О-компании" transform="translate(-318.000000, -3976.000000)">
            <g id="Partners" transform="translate(0.000000, 3705.000000)">
                <g id="Group-9" transform="translate(218.000000, 261.000000)">
                    <g id="Prod-3" transform="translate(90.000000, 0.000000)">
                        <g id="004-settings" transform="translate(15.000000, 15.000000)">
                            <g id="Path-5">
                                <use fill="black" fill-opacity="1" filter="url(#filter-3)" xlink:href="#path-2"></use>
                                <use fill="url(#linearGradient-1)" fill-rule="evenodd" xlink:href="#path-2"></use>
                            </g>
                        </g>
                    </g>
                </g>
            </g>
        </g>
    </g>
</svg>