<svg xmlns="http://www.w3.org/2000/svg" xmlns:xlink="http://www.w3.org/1999/xlink" viewBox="0 0 45 58"><defs><linearGradient id="a" x1="100%" x2="19.44%" y1="0%" y2="82.168%"><stop offset="0%" stop-color="#FFE0CA"/><stop offset="100%" stop-color="#FFBD9A"/></linearGradient><linearGradient id="d" x1="86.915%" x2="22.757%" y1="5.031%" y2="50%"><stop offset="0%" stop-color="#F9A247"/><stop offset="100%" stop-color="#F16922"/></linearGradient><filter id="b" width="142.3%" height="131.3%" x="-21.2%" y="-15.6%" filterUnits="objectBoundingBox"><feOffset in="SourceAlpha" result="shadowOffsetOuter1"/><feGaussianBlur in="shadowOffsetOuter1" result="shadowBlurOuter1" stdDeviation="1"/><feColorMatrix in="shadowBlurOuter1" result="shadowMatrixOuter1" values="0 0 0 0 1 0 0 0 0 0.403921569 0 0 0 0 0 0 0 0 0.501475087 0"/><feOffset in="SourceAlpha" result="shadowOffsetOuter2"/><feGaussianBlur in="shadowOffsetOuter2" result="shadowBlurOuter2" stdDeviation="2.5"/><feColorMatrix in="shadowBlurOuter2" result="shadowMatrixOuter2" values="0 0 0 0 1 0 0 0 0 0.485195436 0 0 0 0 0.301276677 0 0 0 0.295536495 0"/><feMerge><feMergeNode in="shadowMatrixOuter1"/><feMergeNode in="shadowMatrixOuter2"/></feMerge></filter><path id="c" d="M35.431 24.383l-2.579-5.756 2.58-5.756-5.47-3.14-1.297-6.174-6.272.675L17.716 0l-4.678 4.232-6.271-.674L5.47 9.73 0 12.87l2.58 5.756L0 24.383l5.47 3.141.702 3.345L.334 43.276l6.093.08L10.373 48l5.74-12.196 1.603 1.45 1.603-1.45L25.06 48l3.945-4.645 6.094-.08-5.84-12.406.704-3.345 5.47-3.14zm-17.715 5.562c-6.24 0-11.318-5.077-11.318-11.318 0-6.24 5.077-11.317 11.318-11.317 6.24 0 11.317 5.077 11.317 11.317s-5.077 11.318-11.317 11.318z"/></defs><g fill="none" fill-rule="evenodd"><path fill="url(#a)" fill-rule="nonzero" d="M17.716 10.122c-4.69 0-8.505 3.816-8.505 8.505 0 4.69 3.815 8.506 8.505 8.506 4.69 0 8.505-3.816 8.505-8.506s-3.815-8.505-8.505-8.505z" transform="translate(5 5)"/><g transform="translate(5 5)"><use fill="#000" filter="url(#b)" xlink:href="#c"/><use fill="url(#d)" xlink:href="#c"/></g></g></svg>