<svg xmlns="http://www.w3.org/2000/svg" viewBox="0 0 54 60"><g fill="none"><path fill="#FFF" d="M31.857 22.969a5.28 5.28 0 00-5.273-5.274 5.28 5.28 0 00-5.274 5.274 5.28 5.28 0 005.274 5.273 5.28 5.28 0 005.273-5.273z"/><path fill="#FFF" d="M26.584 28.242c-4.846 0-8.79 3.943-8.79 8.79v5.273h17.579V37.03c0-4.846-3.943-8.789-8.79-8.789z"/><path fill="#FF6700" d="M50.532 37.737a5.306 5.306 0 00-1.097-.464V22.718a5.263 5.263 0 001.097-.455 5.283 5.283 0 001.931-7.204c-1.455-2.519-4.688-3.387-7.203-1.932h-.003c-.312.181-.598.39-.858.62L31.758 6.256c.06-.32.1-.646.1-.983A5.28 5.28 0 0026.583 0a5.28 5.28 0 00-5.274 5.273c0 .337.04.664.1.983l-12.641 7.49a5.273 5.273 0 00-.858-.619h-.004A5.28 5.28 0 00.704 15.06a5.282 5.282 0 001.931 7.203c.35.202.721.34 1.097.455v14.554a5.285 5.285 0 00-1.097.465A5.284 5.284 0 00.704 44.94a5.28 5.28 0 008.065 1.312l12.64 7.491a5.31 5.31 0 00-.099.983A5.28 5.28 0 0026.584 60a5.28 5.28 0 005.273-5.273c0-.337-.039-.664-.1-.983L44.4 46.252a5.243 5.243 0 003.485 1.324 5.28 5.28 0 004.578-2.636 5.281 5.281 0 00-1.93-7.203zm-7.202 1.931c-.635 1.099-.804 2.33-.61 3.493l-12.752 7.556c-.918-.777-2.09-1.264-3.384-1.264s-2.466.487-3.385 1.263l-12.75-7.555c.193-1.163.024-2.393-.61-3.491-.588-1.02-1.522-1.717-2.591-2.158V22.488c1.07-.44 2.003-1.139 2.59-2.156.635-1.099.804-2.33.61-3.493L23.2 9.283c.92.777 2.09 1.264 3.385 1.264 1.294 0 2.466-.487 3.384-1.263l12.751 7.555c-.193 1.163-.024 2.393.61 3.491.587 1.02 1.521 1.717 2.59 2.158v15.024c-1.069.44-2.003 1.139-2.59 2.156z"/></g></svg>