<?xml version="1.0" encoding="UTF-8"?>
<svg width="62px" height="62px" viewBox="0 0 62 62" version="1.1" xmlns="http://www.w3.org/2000/svg" xmlns:xlink="http://www.w3.org/1999/xlink">
    <!-- Generator: Sketch 59.1 (86144) - https://sketch.com -->
    <title>Shape</title>
    <desc>Created with Sketch.</desc>
    <defs>
        <linearGradient x1="117.750136%" y1="5.0308922%" x2="0%" y2="50%" id="linearGradient-1">
            <stop stop-color="#F9A247" offset="0%"></stop>
            <stop stop-color="#F16922" offset="100%"></stop>
        </linearGradient>
        <path d="M19.3083333,31.4708333 C23.5083333,39.725 30.275,46.4625 38.5291667,50.6916667 L44.9458333,44.275 C45.7333333,43.4875 46.9,43.225 47.9208333,43.575 C51.1875,44.6541667 54.7166667,45.2375 58.3333333,45.2375 C59.9375,45.2375 61.25,46.55 61.25,48.1541667 L61.25,58.3333333 C61.25,59.9375 59.9375,61.25 58.3333333,61.25 C30.9458333,61.25 8.75,39.0541667 8.75,11.6666667 C8.75,10.0625 10.0625,8.75 11.6666667,8.75 L21.875,8.75 C23.4791667,8.75 24.7916667,10.0625 24.7916667,11.6666667 C24.7916667,15.3125 25.375,18.8125 26.4541667,22.0791667 C26.775,23.1 26.5416667,24.2375 25.725,25.0541667 L19.3083333,31.4708333 L19.3083333,31.4708333 Z" id="path-2"></path>
        <filter x="-14.3%" y="-14.3%" width="128.6%" height="128.6%" filterUnits="objectBoundingBox" id="filter-3">
            <feOffset dx="0" dy="0" in="SourceAlpha" result="shadowOffsetOuter1"></feOffset>
            <feGaussianBlur stdDeviation="1" in="shadowOffsetOuter1" result="shadowBlurOuter1"></feGaussianBlur>
            <feColorMatrix values="0 0 0 0 1   0 0 0 0 0.403921569   0 0 0 0 0  0 0 0 0.501475087 0" type="matrix" in="shadowBlurOuter1" result="shadowMatrixOuter1"></feColorMatrix>
            <feOffset dx="0" dy="0" in="SourceAlpha" result="shadowOffsetOuter2"></feOffset>
            <feGaussianBlur stdDeviation="2.5" in="shadowOffsetOuter2" result="shadowBlurOuter2"></feGaussianBlur>
            <feColorMatrix values="0 0 0 0 1   0 0 0 0 0.485195436   0 0 0 0 0.301276677  0 0 0 0.295536495 0" type="matrix" in="shadowBlurOuter2" result="shadowMatrixOuter2"></feColorMatrix>
            <feMerge>
                <feMergeNode in="shadowMatrixOuter1"></feMergeNode>
                <feMergeNode in="shadowMatrixOuter2"></feMergeNode>
            </feMerge>
        </filter>
    </defs>
    <g id="web" stroke="none" stroke-width="1" fill="none" fill-rule="evenodd">
        <g id="9-контакты" transform="translate(-160.000000, -598.000000)">
            <g id="Group-5" transform="translate(156.000000, 594.000000)">
                <g id="ic_call">
                    <g id="Icon-24px">
                        <g id="Shape">
                            <use fill="black" fill-opacity="1" filter="url(#filter-3)" xlink:href="#path-2"></use>
                            <use fill="url(#linearGradient-1)" fill-rule="evenodd" xlink:href="#path-2"></use>
                        </g>
                    </g>
                </g>
            </g>
        </g>
    </g>
</svg>