<?xml version="1.0" encoding="UTF-8"?>
<svg width="58px" height="58px" viewBox="0 0 58 58" version="1.1" xmlns="http://www.w3.org/2000/svg" xmlns:xlink="http://www.w3.org/1999/xlink">
    <!-- Generator: Sketch 59.1 (86144) - https://sketch.com -->
    <title>Path 6</title>
    <desc>Created with Sketch.</desc>
    <defs>
        <linearGradient x1="116.512716%" y1="5.0308922%" x2="0.913222793%" y2="50%" id="linearGradient-1">
            <stop stop-color="#F9A247" offset="0%"></stop>
            <stop stop-color="#F16922" offset="100%"></stop>
        </linearGradient>
        <path d="M47.559633,46.2385321 L47.559633,48 L-6.75015599e-14,48 L-6.75015599e-14,46.2385321 L47.559633,46.2385321 Z M13.1009174,16.293578 L13.1009174,34.5688073 C13.1009174,34.9945528 13.4458142,35.3394495 13.8715596,35.3394495 L13.8715596,35.3394495 L47.559633,35.3394495 L47.559633,44.6972477 L-6.75015599e-14,44.6972477 L-6.75015599e-14,16.293578 L13.1009174,16.293578 Z M5.6146789,41.7247706 L1.76146789,41.7247706 L1.76146789,43.266055 L5.6146789,43.266055 L5.6146789,41.7247706 Z M11.2293578,41.7247706 L7.37614679,41.7247706 L7.37614679,43.266055 L11.2293578,43.266055 L11.2293578,41.7247706 Z M18.0550459,41.5045872 L13.2110092,41.5045872 L13.2110092,43.0458716 L18.0550459,43.0458716 L18.0550459,41.5045872 Z M26.9724771,41.5045872 L22.1284404,41.5045872 L22.1284404,43.0458716 L26.9724771,43.0458716 L26.9724771,41.5045872 Z M35.8899083,41.5045872 L31.0458716,41.5045872 L31.0458716,43.0458716 L35.8899083,43.0458716 L35.8899083,41.5045872 Z M44.8073394,41.5045872 L39.9633028,41.5045872 L39.9633028,43.0458716 L44.8073394,43.0458716 L44.8073394,41.5045872 Z M18.0550459,38.0917431 L13.2110092,38.0917431 L13.2110092,39.6330275 L18.0550459,39.6330275 L18.0550459,38.0917431 Z M26.9724771,38.0917431 L22.1284404,38.0917431 L22.1284404,39.6330275 L26.9724771,39.6330275 L26.9724771,38.0917431 Z M35.8899083,38.0917431 L31.0458716,38.0917431 L31.0458716,39.6330275 L35.8899083,39.6330275 L35.8899083,38.0917431 Z M44.8073394,38.0917431 L39.9633028,38.0917431 L39.9633028,39.6330275 L44.8073394,39.6330275 L44.8073394,38.0917431 Z M5.6146789,37.7614679 L1.76146789,37.7614679 L1.76146789,39.3027523 L5.6146789,39.3027523 L5.6146789,37.7614679 Z M11.2293578,37.7614679 L7.37614679,37.7614679 L7.37614679,39.3027523 L11.2293578,39.3027523 L11.2293578,37.7614679 Z M5.6146789,33.7981651 L1.76146789,33.7981651 L1.76146789,35.3394495 L5.6146789,35.3394495 L5.6146789,33.7981651 Z M11.2293578,33.7981651 L7.37614679,33.7981651 L7.37614679,35.3394495 L11.2293578,35.3394495 L11.2293578,33.7981651 Z M23.2293578,19.8827408 L23.2293578,33.7981651 L18.6166857,33.7981651 C18.7426892,29.0728211 20.0255161,26.5888761 21.3818807,23.9686067 C22.0351204,22.705992 22.6978211,21.4240252 23.2293578,19.8827408 L23.2293578,19.8827408 Z M46.0183486,19.2028383 L46.0183486,33.7981651 L41.1854931,33.7981651 C41.3030964,29.387844 42.4284213,26.9300306 43.6807166,24.491897 L43.9506881,23.9690367 C44.6972477,22.5253727 45.4567088,21.0550459 46.0183486,19.2028383 L46.0183486,19.2028383 Z M34.6788991,13.4311927 L34.6788991,33.7981651 L29.3944954,33.7981651 L29.3944954,13.4311927 L34.6788991,13.4311927 Z M5.6146789,29.8348624 L1.76146789,29.8348624 L1.76146789,31.3761468 L5.6146789,31.3761468 L5.6146789,29.8348624 Z M11.2293578,29.8348624 L7.37614679,29.8348624 L7.37614679,31.3761468 L11.2293578,31.3761468 L11.2293578,29.8348624 Z M22.7778097,13.4311927 C22.6518062,18.1565367 21.3689793,20.6404817 20.0126147,23.2603211 C19.266055,24.7039851 18.506594,26.1743119 17.9449541,28.0265195 L17.9449541,28.0265195 L17.9449541,13.4311927 Z M5.6146789,25.8715596 L1.76146789,25.8715596 L1.76146789,27.412844 L5.6146789,27.412844 L5.6146789,25.8715596 Z M11.2293578,25.8715596 L7.37614679,25.8715596 L7.37614679,27.412844 L11.2293578,27.412844 L11.2293578,25.8715596 Z M45.346617,13.4311927 C45.2206135,18.1565367 43.9377866,20.6404817 42.581422,23.2607511 C41.9286123,24.5233658 41.2654817,25.8053326 40.733945,27.346617 L40.733945,27.346617 L40.733945,13.4311927 Z M5.6146789,21.9082569 L1.76146789,21.9082569 L1.76146789,23.4495413 L5.6146789,23.4495413 L5.6146789,21.9082569 Z M11.2293578,21.9082569 L7.37614679,21.9082569 L7.37614679,23.4495413 L11.2293578,23.4495413 L11.2293578,21.9082569 Z M5.6146789,17.9449541 L1.76146789,17.9449541 L1.76146789,19.4862385 L5.6146789,19.4862385 L5.6146789,17.9449541 Z M11.2293578,17.9449541 L7.37614679,17.9449541 L7.37614679,19.4862385 L11.2293578,19.4862385 L11.2293578,17.9449541 Z M19.266055,0 C19.6918005,0 20.0366972,0.344896734 20.0366972,0.770642202 C20.0366972,0.918147963 20.1373279,1.01963879 20.5759748,1.3146502 C21.0627866,1.64148506 21.7981651,2.13560785 21.7981651,3.1380447 C21.7981651,4.14005163 21.0623566,4.63417431 20.5759748,4.96100917 C20.1377581,5.2560207 20.0366972,5.35751141 20.0366972,5.50501717 C20.0366972,5.65252294 20.1373279,5.75401376 20.5759748,6.04859516 C21.0627866,6.37543002 21.7981651,6.86955281 21.7981651,7.87198965 C21.7981651,8.87399659 21.0627866,9.36811927 20.5759748,9.69495413 C20.1377581,9.98953552 20.0366972,10.0914564 20.0366972,10.2385321 C20.0366972,10.6642776 19.6918005,11.0091743 19.266055,11.0091743 C18.8403096,11.0091743 18.4954128,10.6642776 18.4954128,10.2385321 C18.4954128,9.23652528 19.2307913,8.7424025 19.7176032,8.41556763 C20.1558199,8.12055622 20.2568807,8.01906539 20.2568807,7.87155963 C20.2568807,7.72405387 20.1562501,7.62256305 19.7176032,7.32755163 C19.2307913,7.00114679 18.4954128,6.50659398 18.4954128,5.50458716 C18.4954128,4.50258033 19.2307913,4.00845754 19.7176032,3.68162268 C20.1558199,3.38661127 20.2568807,3.28555046 20.2568807,3.1380447 C20.2568807,2.99010892 20.1562501,2.88861809 19.7176032,2.5940367 C19.2307913,2.26720183 18.4954128,1.77264903 18.4954128,0.770642202 C18.4954128,0.344896734 18.8403096,0 19.266055,0 Z M42.4954128,0 C42.9211583,0 43.266055,0.344896734 43.266055,0.770642202 C43.266055,0.918147963 43.3666857,1.01963879 43.8053326,1.3146502 C44.2921444,1.64148506 45.0275229,2.13560785 45.0275229,3.1380447 C45.0275229,4.14005163 44.2917144,4.63417431 43.8053326,4.96100917 C43.3671159,5.2560207 43.266055,5.35751141 43.266055,5.50501717 C43.266055,5.65252294 43.3666857,5.75401376 43.8053326,6.04859516 C44.2921444,6.37543002 45.0275229,6.86955281 45.0275229,7.87198965 C45.0275229,8.87399659 44.2921444,9.36811927 43.8053326,9.69495413 C43.3671159,9.98953552 43.266055,10.0914564 43.266055,10.2385321 C43.266055,10.6642776 42.9211583,11.0091743 42.4954128,11.0091743 C42.0696674,11.0091743 41.7247706,10.6642776 41.7247706,10.2385321 C41.7247706,9.23652528 42.4601491,8.7424025 42.946961,8.41556763 C43.3851777,8.12055622 43.4862385,8.01906539 43.4862385,7.87155963 C43.4862385,7.72405387 43.3856079,7.62256305 42.946961,7.32755163 C42.4601491,7.00114679 41.7247706,6.50659398 41.7247706,5.50458716 C41.7247706,4.50258033 42.4601491,4.00845754 42.946961,3.68162268 C43.3851777,3.38661127 43.4862385,3.28555046 43.4862385,3.1380447 C43.4862385,2.99010892 43.3856079,2.88861809 42.946961,2.5940367 C42.4601491,2.26720183 41.7247706,1.77264903 41.7247706,0.770642202 C41.7247706,0.344896734 42.0696674,0 42.4954128,0 Z" id="path-2"></path>
        <filter x="-15.8%" y="-15.6%" width="131.5%" height="131.2%" filterUnits="objectBoundingBox" id="filter-3">
            <feOffset dx="0" dy="0" in="SourceAlpha" result="shadowOffsetOuter1"></feOffset>
            <feGaussianBlur stdDeviation="1" in="shadowOffsetOuter1" result="shadowBlurOuter1"></feGaussianBlur>
            <feColorMatrix values="0 0 0 0 1   0 0 0 0 0.403921569   0 0 0 0 0  0 0 0 0.501475087 0" type="matrix" in="shadowBlurOuter1" result="shadowMatrixOuter1"></feColorMatrix>
            <feOffset dx="0" dy="0" in="SourceAlpha" result="shadowOffsetOuter2"></feOffset>
            <feGaussianBlur stdDeviation="2.5" in="shadowOffsetOuter2" result="shadowBlurOuter2"></feGaussianBlur>
            <feColorMatrix values="0 0 0 0 1   0 0 0 0 0.485195436   0 0 0 0 0.301276677  0 0 0 0.295536495 0" type="matrix" in="shadowBlurOuter2" result="shadowMatrixOuter2"></feColorMatrix>
            <feMerge>
                <feMergeNode in="shadowMatrixOuter1"></feMergeNode>
                <feMergeNode in="shadowMatrixOuter2"></feMergeNode>
            </feMerge>
        </filter>
    </defs>
    <g id="web" stroke="none" stroke-width="1" fill="none" fill-rule="evenodd">
        <g id="7-Партнерам" transform="translate(-166.000000, -2042.000000)">
            <g id="Partners" transform="translate(0.000000, 1598.000000)">
                <g id="Group-9" transform="translate(155.000000, 435.000000)">
                    <g id="Prod-3">
                        <g id="003-manufacturer" transform="translate(16.000000, 14.000000)">
                            <g id="Path-6">
                                <use fill="black" fill-opacity="1" filter="url(#filter-3)" xlink:href="#path-2"></use>
                                <use fill="url(#linearGradient-1)" fill-rule="evenodd" xlink:href="#path-2"></use>
                            </g>
                        </g>
                    </g>
                </g>
            </g>
        </g>
    </g>
</svg>