<svg xmlns="http://www.w3.org/2000/svg" fill="#F16922" viewBox="0 0 512 512">
  <path d="M121 68.5H45a15 15 0 100 30h76a15 15 0 100-30zM121 188.5H45a15 15 0 100 30h76a15 15 0 100-30zM91 128.5H15a15 15 0 100 30h76a15 15 0 100-30zM482 203.5h-91v-60c0-26.35-32.23-40.22-51.22-21.2l-120 119.99a29.99 29.99 0 000 42.42l68.8 68.79-83.8 83.79a29.99 29.99 0 1042.43 42.42l105-105a29.99 29.99 0 000-42.42l-68.79-68.79L331 215.92v17.58a30 30 0 0030 30h121a30 30 0 000-60zM280.14 51.04a30 30 0 00-37.85 3.75l-82.5 82.5a29.99 29.99 0 1042.42 42.42l65.11-65.11 21.94 15.8 29.3-29.3c4.9-4.9 10.69-8.71 17.01-11.68l-55.43-38.38z"/>
  <path d="M198.58 305.92a59.46 59.46 0 01-15.35-27.07L24.79 437.29A29.99 29.99 0 1067.2 479.7L219.8 327.13l-21.21-21.2z"/>
  <circle cx="406" cy="68.5" r="45"/>
</svg>
