<?xml version="1.0" encoding="UTF-8"?>
<svg width="58px" height="54px" viewBox="0 0 58 54" version="1.1" xmlns="http://www.w3.org/2000/svg" xmlns:xlink="http://www.w3.org/1999/xlink">
    <!-- Generator: Sketch 59.1 (86144) - https://sketch.com -->
    <title>Shape</title>
    <desc>Created with Sketch.</desc>
    <defs>
        <linearGradient x1="117.750136%" y1="12.213458%" x2="0%" y2="50%" id="linearGradient-1">
            <stop stop-color="#F9A247" offset="0%"></stop>
            <stop stop-color="#F16922" offset="100%"></stop>
        </linearGradient>
        <path d="M41.3184,30.8168 L6.6048,30.8168 C2.9696,30.8168 0,33.7864 0,37.4216 C0,41.0568 2.9696,44.0264 6.6048,44.0264 L41.3184,44.0264 C44.9536,44.0264 47.9232,41.0568 47.9232,37.4216 C47.9232,33.7864 44.9536,30.8168 41.3184,30.8168 Z M10.5984,39.2648 C9.5744,39.2648 8.7552,38.4456 8.7552,37.4216 C8.7552,36.3976 9.5744,35.5784 10.5984,35.5272 C11.6224,35.476 12.4416,36.3464 12.4928,37.3704 C12.4416,38.4456 11.6224,39.2648 10.5984,39.2648 Z M16.5888,39.2648 C15.5648,39.2648 14.7456,38.4456 14.7456,37.4216 C14.7456,36.3976 15.5648,35.5784 16.5888,35.5272 C17.6128,35.476 18.432,36.3464 18.4832,37.3704 C18.432,38.4456 17.6128,39.2648 16.5888,39.2648 Z M22.6304,35.5784 C23.6544,35.5784 24.4736,36.3976 24.4736,37.4216 C24.4736,38.4456 23.6544,39.2648 22.6304,39.2648 C21.6064,39.2648 20.7872,38.4456 20.7872,37.4216 C20.7872,36.3976 21.6064,35.5784 22.6304,35.5784 Z M41.3184,15.4568 C44.9536,15.4568 47.9232,18.4264 47.9232,22.0616 C47.9232,25.6968 44.9536,28.6664 41.3184,28.6664 L41.3184,28.6664 L6.6048,28.6664 C2.9696,28.6664 0,25.6968 0,22.0616 C0,18.4264 2.9696,15.4568 6.6048,15.4568 L6.6048,15.4568 Z M10.7432317,20.1660722 L10.5984,20.1672 C9.5744,20.2184 8.7552,21.0376 8.7552,22.0616 C8.7552,23.0856 9.5744,23.9048 10.5984,23.9048 C11.6224,23.9048 12.4416,23.0856 12.4928,22.0104 C12.4416,20.9864 11.6224,20.116 10.5984,20.1672 Z M16.7336317,20.1660722 L16.5888,20.1672 C15.5648,20.2184 14.7456,21.0376 14.7456,22.0616 C14.7456,23.0856 15.5648,23.9048 16.5888,23.9048 C17.6128,23.9048 18.432,23.0856 18.4832,22.0104 C18.432,20.9864 17.6128,20.116 16.5888,20.1672 Z M22.6304,20.2184 C21.6064,20.2184 20.7872,21.0376 20.7872,22.0616 C20.7872,23.0856 21.6064,23.9048 22.6304,23.9048 C23.6544,23.9048 24.4736,23.0856 24.4736,22.0616 C24.4736,21.0376 23.6544,20.2184 22.6304,20.2184 Z M41.3184,0.0968 C44.9536,0.0968 47.9232,3.0664 47.9232,6.7016 C47.9232,10.3368 44.9536,13.3064 41.3184,13.3064 L41.3184,13.3064 L6.6048,13.3064 C2.9696,13.3064 0,10.3368 0,6.7016 C0,3.0664 2.9696,0.0968 6.6048,0.0968 L6.6048,0.0968 Z M10.5472,4.8584 C9.5232,4.8584 8.704,5.6776 8.7552,6.7016 C8.7552,7.7256 9.5744,8.5448 10.5984,8.5448 C11.6224,8.5448 12.4416,7.7256 12.4416,6.7016 C12.3904,5.6776 11.5712,4.8584 10.5472,4.8584 Z M16.5888,4.8584 C15.5648,4.8584 14.7456,5.6776 14.7968,6.7016 C14.7968,7.7256 15.616,8.5448 16.64,8.5448 C17.664,8.5448 18.4832,7.7256 18.4832,6.7016 C18.432,5.6776 17.6128,4.8584 16.5888,4.8584 Z M22.6304,4.8584 C21.6064,4.8584 20.7872,5.6776 20.7872,6.7016 C20.7872,7.7256 21.6064,8.5448 22.6304,8.5448 C23.6544,8.5448 24.4736,7.7256 24.4736,6.7016 C24.4736,5.6776 23.6544,4.8584 22.6304,4.8584 Z" id="path-2"></path>
        <filter x="-15.7%" y="-17.1%" width="131.3%" height="134.1%" filterUnits="objectBoundingBox" id="filter-3">
            <feOffset dx="0" dy="0" in="SourceAlpha" result="shadowOffsetOuter1"></feOffset>
            <feGaussianBlur stdDeviation="1" in="shadowOffsetOuter1" result="shadowBlurOuter1"></feGaussianBlur>
            <feColorMatrix values="0 0 0 0 1   0 0 0 0 0.403921569   0 0 0 0 0  0 0 0 0.501475087 0" type="matrix" in="shadowBlurOuter1" result="shadowMatrixOuter1"></feColorMatrix>
            <feOffset dx="0" dy="0" in="SourceAlpha" result="shadowOffsetOuter2"></feOffset>
            <feGaussianBlur stdDeviation="2.5" in="shadowOffsetOuter2" result="shadowBlurOuter2"></feGaussianBlur>
            <feColorMatrix values="0 0 0 0 1   0 0 0 0 0.485195436   0 0 0 0 0.301276677  0 0 0 0.295536495 0" type="matrix" in="shadowBlurOuter2" result="shadowMatrixOuter2"></feColorMatrix>
            <feMerge>
                <feMergeNode in="shadowMatrixOuter1"></feMergeNode>
                <feMergeNode in="shadowMatrixOuter2"></feMergeNode>
            </feMerge>
        </filter>
    </defs>
    <g id="web" stroke="none" stroke-width="1" fill="none" fill-rule="evenodd">
        <g id="7-Партнерам" transform="translate(-166.000000, -1806.000000)">
            <g id="Partners" transform="translate(0.000000, 1598.000000)">
                <g id="Group-9" transform="translate(155.000000, 195.000000)">
                    <g id="Prod-3">
                        <g id="001-server" transform="translate(16.000000, 18.000000)">
                            <g id="Shape">
                                <use fill="black" fill-opacity="1" filter="url(#filter-3)" xlink:href="#path-2"></use>
                                <use fill="url(#linearGradient-1)" fill-rule="evenodd" xlink:href="#path-2"></use>
                            </g>
                        </g>
                    </g>
                </g>
            </g>
        </g>
    </g>
</svg>