<?xml version="1.0" encoding="UTF-8"?>
<svg width="58px" height="58px" viewBox="0 0 58 58" version="1.1" xmlns="http://www.w3.org/2000/svg" xmlns:xlink="http://www.w3.org/1999/xlink">
    <!-- Generator: Sketch 59.1 (86144) - https://sketch.com -->
    <title>Oval 2</title>
    <desc>Created with Sketch.</desc>
    <defs>
        <linearGradient x1="117.750136%" y1="5.24882661%" x2="0%" y2="50%" id="linearGradient-1">
            <stop stop-color="#F9A247" offset="0%"></stop>
            <stop stop-color="#F16922" offset="100%"></stop>
        </linearGradient>
        <path d="M8.82708241,40.1600713 C8.84685969,40.160392 8.86663697,40.1609265 8.88641425,40.161461 C12.0931136,40.2545746 14.6171225,42.9295323 14.523902,46.1362316 L14.523902,46.1362316 L14.523902,47.0298441 C14.523902,47.4767038 14.3563831,47.9793675 13.8537194,47.9793675 L13.8537194,47.9793675 L0.672641425,47.9793675 C0.169977728,47.9793675 0.00245879733,47.4767038 0.00245879733,47.0298441 L0.00245879733,47.0298441 L0.00245879733,46.1362316 C0.00192427617,46.1164543 0.00138975501,46.0966771 0.00106904231,46.0768998 L0.00106786311,45.8540558 C0.0596867313,42.7476389 2.56652945,40.2189631 5.6993853,40.1600713 L5.6993853,40.1600713 Z M42.338245,40.1600713 C42.3580223,40.160392 42.3777996,40.1609265 42.3975768,40.161461 C45.6042762,40.2545746 48.1282851,42.9295323 48.0351715,46.1362316 L48.0351715,46.1362316 L48.0351715,47.0298441 C48.0351715,47.4767038 47.8676526,47.9793675 47.3649889,47.9793675 L47.3649889,47.9793675 L34.183804,47.9793675 C33.6811403,47.9793675 33.5136214,47.4767038 33.5136214,47.0298441 L33.5136214,47.0298441 L33.5136214,46.1362316 C33.5130869,46.1164543 33.5125523,46.0966771 33.5122316,46.0768998 L33.5122376,45.8540558 C33.5709513,42.7476389 36.077692,40.2189631 39.2105479,40.1600713 L39.2105479,40.1600713 Z M17.4902806,43.9941915 C17.6328909,43.5540668 18.1051938,43.312784 18.5454254,43.4552873 C22.1193408,44.627706 25.9743073,44.627706 29.5482227,43.4552873 L29.5482227,43.4552873 L29.6589634,43.4393738 C29.9905518,43.4141196 30.3107706,43.5885648 30.466637,43.8903875 C30.6789488,44.3014343 30.5177372,44.8068775 30.1066904,45.0191893 C28.1464944,45.6869131 26.0895501,46.0265479 24.0188151,46.0245258 C21.9893452,46.0228062 19.9727038,45.7024143 18.0426548,45.0749933 C17.6116169,44.9172027 17.3701203,44.4584766 17.4841871,44.013755 L17.4841871,44.013755 Z M7.2631804,30.7768731 C9.57666555,30.7768731 11.4521158,32.6523233 11.4521158,34.9658085 C11.4521158,37.2792936 9.57666555,39.1547439 7.2631804,39.1547439 C4.94969525,39.1547439 3.07424499,37.2792936 3.07424499,34.9658085 C3.07424499,32.6523233 4.94969525,30.7768731 7.2631804,30.7768731 Z M40.7744499,30.7768731 C43.087935,30.7768731 44.9633853,32.6523233 44.9633853,34.9658085 C44.9633853,37.2792936 43.087935,39.1547439 40.7744499,39.1547439 C38.4609647,39.1547439 36.5855145,37.2792936 36.5855145,34.9658085 C36.5855145,32.6523233 38.4609647,30.7768731 40.7744499,30.7768731 Z M12.1224053,12.2340134 C12.4778619,11.9436615 13.0009443,11.9934788 13.2952517,12.3457283 C13.3195189,12.3713853 13.3420757,12.3986459 13.3627082,12.4274031 C13.6145746,12.7781559 13.5342895,13.2667082 13.1835367,13.5185746 C9.07809354,16.8021381 6.69306013,21.7777817 6.70471269,27.0347973 C6.70471269,27.4974788 6.32958575,27.8726058 5.86690423,27.8726058 C5.40422272,27.8726058 5.02920267,27.4975857 5.02920267,27.0347973 C5.02941648,21.2814254 7.63798664,15.8382895 12.1224053,12.2340134 Z M33.793069,11.7314566 C34.0696303,11.3684098 34.5752873,11.2720891 34.9659154,11.5080267 C39.9975768,15.0806592 42.9932472,20.8639644 43.0086414,27.0349042 C43.0086414,27.4975857 42.6335145,27.8727127 42.170833,27.8727127 C41.7081514,27.8727127 41.3330245,27.4975857 41.3330245,27.0349042 C41.3219065,21.4187973 38.5961693,16.1547261 34.016392,12.9043029 C34.0127572,12.9018441 34.0091225,12.8993853 34.0055947,12.8969265 C33.6250156,12.6338352 33.5297639,12.1120356 33.793069,11.7314566 Z M25.6123831,9.44207572 L25.642049,9.44285078 C28.8486414,9.53596437 31.3726503,12.211029 31.2795367,15.4176214 L31.2795367,15.4176214 L31.2795367,16.3112339 C31.2795367,16.7580935 31.1120178,17.2607572 30.6093541,17.2607572 L30.6093541,17.2607572 L17.4282762,17.2607572 C16.9256125,17.2607572 16.7580935,16.7580935 16.7580935,16.3112339 L16.7580935,16.3112339 L16.7580935,15.4176214 C16.757559,15.3978441 16.7570245,15.3780668 16.7567038,15.3582895 C16.6964098,12.1508419 19.2475724,9.50175501 22.45502,9.44146102 L22.45502,9.44146102 L25.6123831,9.44207572 L25.6123831,9.44207572 Z M24.0188151,0.0582628062 C26.3323003,0.0582628062 28.2077506,1.93371307 28.2077506,4.24719822 C28.2077506,6.56068336 26.3323003,8.43613363 24.0188151,8.43613363 C21.70533,8.43613363 19.8298797,6.56068336 19.8298797,4.24719822 C19.8298797,1.93371307 21.70533,0.0582628062 24.0188151,0.0582628062 Z" id="path-2"></path>
        <filter x="-15.6%" y="-15.7%" width="131.2%" height="131.3%" filterUnits="objectBoundingBox" id="filter-3">
            <feOffset dx="0" dy="0" in="SourceAlpha" result="shadowOffsetOuter1"></feOffset>
            <feGaussianBlur stdDeviation="1" in="shadowOffsetOuter1" result="shadowBlurOuter1"></feGaussianBlur>
            <feColorMatrix values="0 0 0 0 1   0 0 0 0 0.403921569   0 0 0 0 0  0 0 0 0.501475087 0" type="matrix" in="shadowBlurOuter1" result="shadowMatrixOuter1"></feColorMatrix>
            <feOffset dx="0" dy="0" in="SourceAlpha" result="shadowOffsetOuter2"></feOffset>
            <feGaussianBlur stdDeviation="2.5" in="shadowOffsetOuter2" result="shadowBlurOuter2"></feGaussianBlur>
            <feColorMatrix values="0 0 0 0 1   0 0 0 0 0.485195436   0 0 0 0 0.301276677  0 0 0 0.295536495 0" type="matrix" in="shadowBlurOuter2" result="shadowMatrixOuter2"></feColorMatrix>
            <feMerge>
                <feMergeNode in="shadowMatrixOuter1"></feMergeNode>
                <feMergeNode in="shadowMatrixOuter2"></feMergeNode>
            </feMerge>
        </filter>
    </defs>
    <g id="web" stroke="none" stroke-width="1" fill="none" fill-rule="evenodd">
        <g id="5-О-компании" transform="translate(-697.000000, -4202.000000)">
            <g id="Partners" transform="translate(0.000000, 3705.000000)">
                <g id="Group-9" transform="translate(602.000000, 491.000000)">
                    <g id="Prod-3" transform="translate(84.000000, 0.000000)">
                        <g id="003-group" transform="translate(16.000000, 11.000000)">
                            <g id="Oval-2">
                                <use fill="black" fill-opacity="1" filter="url(#filter-3)" xlink:href="#path-2"></use>
                                <use fill="url(#linearGradient-1)" fill-rule="evenodd" xlink:href="#path-2"></use>
                            </g>
                        </g>
                    </g>
                </g>
            </g>
        </g>
    </g>
</svg>