<svg xmlns="http://www.w3.org/2000/svg" viewBox="0 0 34 24">
  <g fill-rule="nonzero">
    <path d="M22.343 18.736l-.293-.293-.034-.034a10.614 10.614 0 01-5.407 1.48c-2.407 0-4.698-.798-6.559-2.27a22.42 22.42 0 00-1.527 1.151 1.735 1.735 0 00-.634 1.344v2.461h17.488v-.811l-2.57-2.57-.464-.458zM17.025 3.702h-.777a3.242 3.242 0 00-3.239 3.239v3.593c0 .566.286 1.057.723 1.35v3.068c.88.45 1.861.696 2.884.696a6.277 6.277 0 002.918-.71v-3.047c.436-.293.723-.784.723-1.35V6.948a3.229 3.229 0 00-3.232-3.246zM32.748 16.343c-1.868-1.534-3.88-2.55-4.289-2.754a.129.129 0 01-.075-.123V10.56c.368-.245.607-.661.607-1.131V6.416c0-1.5-1.214-2.714-2.714-2.714h-.627a10.578 10.578 0 011.575 5.168 10.575 10.575 0 01-1.473 5.823l.034.034.137.137.157.156.463.464 4.064 4.064h2.673v-2.066c0-.443-.198-.86-.532-1.139z"/>
    <path d="M30.948 21.798l-5.366-5.366-.464-.464-.157-.157-.136-.136-.361.361-.778-.777a9.256 9.256 0 00-.525-12.525A9.237 9.237 0 0016.616.02a9.237 9.237 0 00-6.546 2.714c-3.613 3.614-3.613 9.477 0 13.091a9.237 9.237 0 006.546 2.714 9.24 9.24 0 005.98-2.189l.777.777-.362.362.294.293.463.463 5.366 5.366c.252.253.58.375.907.375.327 0 .654-.122.907-.375a1.288 1.288 0 000-1.813c0 .007 0 0 0 0zM22.07 14.74a7.692 7.692 0 01-5.454 2.257 7.712 7.712 0 110-15.423 7.68 7.68 0 015.454 2.257c3.014 3.007 3.014 7.895 0 10.909z"/>
    <path d="M7.595 3.702h-.593A2.712 2.712 0 004.29 6.416V9.43c0 .47.238.886.606 1.131v2.905a.136.136 0 01-.075.123c-.409.197-2.42 1.22-4.288 2.754-.334.28-.532.696-.532 1.132v2.066h6.627a3.056 3.056 0 011.064-1.793c.45-.368.907-.716 1.357-1.037C5.564 13.166 5.08 7.766 7.595 3.702z"/>
  </g>
</svg>
