<svg xmlns="http://www.w3.org/2000/svg" viewBox="0 0 31 24">
  <g fill-rule="nonzero">
    <path d="M21.365 19.14c-2.827-2.32-5.87-3.86-6.489-4.164a.209.209 0 01-.111-.185v-4.398a2.06 2.06 0 00.915-1.713V4.12A4.105 4.105 0 0011.573.015h-.978A4.105 4.105 0 006.49 4.12V8.68c0 .71.365 1.342.915 1.713v4.398c0 .08-.043.148-.111.185-.619.304-3.668 1.844-6.489 4.163A2.199 2.199 0 000 20.847v3.123h9.63l.954-4.36c-1.924-2.685.142-2.815.5-2.815.36 0 2.425.13.502 2.814l.952 4.361h9.631v-3.123c0-.656-.29-1.287-.804-1.708z"/>
    <path d="M28.336 1.844a6.246 6.246 0 00-8.84 0 6.255 6.255 0 00-.265 8.561l.062.05c-.235.507-.644 1.138-1.287 1.453-.21.106-.16.421.068.458.705.111 1.714-.012 2.66-.724l.012.013a6.252 6.252 0 007.584-.971 6.24 6.24 0 00.006-8.84zm-4.157.563c.563 0 1.009.464 1.009 1.033a1.023 1.023 0 01-1.009 1.021 1.028 1.028 0 01-1.02-1.033c0-.57.457-1.027 1.02-1.02zm1.454 6.873a.595.595 0 01-.142.24c-.371.372-.81.6-1.349.607a4.271 4.271 0 01-.742-.043c-.408-.056-.928-.563-.854-1.101a33.8 33.8 0 01.167-1.101c.106-.638.223-1.275.334-1.912a.761.761 0 00.013-.123c0-.266-.087-.36-.347-.396-.11-.019-.228-.025-.334-.062-.13-.05-.191-.149-.179-.254.012-.111.08-.18.229-.21.074-.012.155-.019.235-.019h1.924c.235 0 .383.112.383.353.006.198-.03.396-.062.594-.13.73-.266 1.453-.396 2.183-.043.241-.092.483-.123.724a.964.964 0 00.03.353c.038.154.155.235.31.216.13-.012.26-.062.377-.105.1-.037.186-.105.285-.149.154-.055.278.05.241.205z"/>
  </g>
</svg>
