<?xml version="1.0" standalone="no"?>
<!DOCTYPE svg PUBLIC "-//W3C//DTD SVG 20010904//EN"
 "http://www.w3.org/TR/2001/REC-SVG-20010904/DTD/svg10.dtd">
<svg version="1.0" xmlns="http://www.w3.org/2000/svg"
 width="704.000000pt" height="704.000000pt" viewBox="0 0 704.000000 704.000000"
 preserveAspectRatio="xMidYMid meet">
<metadata>
Created by potrace 1.11, written by Peter Selinger 2001-2013
</metadata>
<g transform="translate(0.000000,704.000000) scale(0.100000,-0.100000)"
fill="#000000" stroke="none">
<path d="M3185 6440 l-360 -360 360 -360 360 -360 268 267 c148 148 272 275
277 283 5 8 10 12 10 8 0 -8 160 154 160 162 0 4 -693 701 -713 717 -2 1 -165
-160 -362 -357z"/>
<path d="M4338 5398 l-228 -229 0 -624 0 -624 541 542 540 541 -188 189 c-158
158 -246 245 -329 325 -7 7 -17 18 -21 25 -5 7 -26 28 -48 48 l-40 36 -227
-229z"/>
<path d="M2156 5308 l-54 -53 417 -415 c229 -228 423 -420 431 -427 13 -10 15
2 15 90 l1 102 -378 378 -378 377 -54 -52z"/>
<path d="M4841 3880 l-731 -731 0 -524 c0 -289 2 -525 5 -525 2 0 452 447
1000 994 l995 994 -261 261 c-144 144 -264 261 -269 261 -4 0 -337 -329 -739
-730z"/>
<path d="M1092 4253 l-64 -66 959 -959 c527 -527 961 -958 964 -958 3 0 5 60
5 133 l-1 133 -892 892 c-491 491 -896 892 -900 891 -4 0 -36 -30 -71 -66z"/>
<path d="M5298 2502 l-1188 -1187 0 -525 0 -525 353 350 c193 193 352 351 351
352 0 4 610 613 616 614 3 1 37 36 75 79 39 43 72 78 75 79 9 2 385 380 388
391 2 5 9 10 15 11 7 1 44 36 82 79 39 43 72 78 75 79 10 2 504 499 508 510 2
6 7 11 11 11 6 0 329 319 359 354 5 6 -512 516 -522 515 -6 0 -545 -534 -1198
-1187z"/>
<path d="M97 3258 l-79 -80 1089 -1089 c599 -599 1087 -1091 1085 -1094 -3 -3
-1 -5 5 -5 13 0 162 -148 155 -155 -3 -3 -1 -5 5 -5 5 0 140 -130 299 -290
159 -159 292 -290 295 -290 3 0 5 71 5 158 l-1 159 -1387 1386 c-762 763
-1388 1387 -1390 1386 -1 0 -38 -37 -81 -81z"/>
</g>
</svg>
